<svg width="48" height="43" viewBox="0 0 48 43" fill="none" xmlns="http://www.w3.org/2000/svg">
<path d="M46.4062 39.0309L35.3625 29.3677C38.1 26.4473 39.75 22.7067 39.75 18.6298C39.75 9.2782 31.0781 1.69031 20.3906 1.69031C9.69375 1.69031 1.03125 9.2782 1.03125 18.6298C1.03125 27.9813 9.69375 35.5692 20.3906 35.5692C25.05 35.5692 29.3156 34.1337 32.6531 31.7384L43.6969 41.3934C44.4469 42.0497 45.6562 42.0497 46.4062 41.3934C47.1562 40.7454 47.1562 39.679 46.4062 39.0309ZM20.3906 32.1977C11.8312 32.1977 4.875 26.111 4.875 18.6298C4.875 11.1485 11.8312 5.05359 20.3906 5.05359C28.9406 5.05359 35.9062 11.1485 35.9062 18.6298C35.9062 26.111 28.9406 32.1977 20.3906 32.1977Z" fill="#718EBF"/>
</svg>
