<svg width="38" height="40" viewBox="0 0 38 40" fill="none" xmlns="http://www.w3.org/2000/svg">
<path d="M18.9516 0.923811C18.9516 0.923811 30.151 0.417719 36.0887 11.7536H17.9986C17.9986 11.7536 14.5847 11.6428 11.6684 15.8134C10.8307 17.5639 9.93023 19.3671 10.9407 22.9208C9.48505 20.4374 3.21252 9.43903 3.21252 9.43903C3.21252 9.43903 7.63682 1.37196 18.9515 0.923811H18.9516Z" fill="#EF3F36"/>
<path d="M35.5074 29.7014C35.5074 29.7014 30.3395 39.7244 17.6269 39.2288C19.1977 36.4923 26.6744 23.4534 26.6744 23.4534C26.6744 23.4534 28.4809 20.5324 26.3498 15.9032C25.2659 14.2951 24.1611 12.6132 20.6009 11.7167C23.4649 11.6905 36.0573 11.7167 36.0573 11.7167C36.0573 11.7167 40.7746 19.6098 35.5074 29.7014Z" fill="#FCD900"/>
<path d="M2.47432 29.7805C2.47432 29.7805 -3.56268 20.2636 3.22298 9.42334C4.78854 12.1598 12.2653 25.1987 12.2653 25.1987C12.2653 25.1987 13.878 28.2357 18.9201 28.689C20.8418 28.5467 22.8418 28.4254 25.3971 25.7734C23.9884 28.2832 17.6686 39.25 17.6686 39.25C17.6686 39.25 8.51637 39.4187 2.47417 29.7805H2.47432Z" fill="#61BC5B"/>
<path d="M17.6218 39.3237L20.1663 28.6311C20.1663 28.6311 22.9623 28.4095 25.308 25.8208C23.8524 28.3992 17.6218 39.3237 17.6218 39.3237Z" fill="#5AB055"/>
<path d="M10.4276 20.2422C10.4276 15.5287 14.2237 11.7061 18.9044 11.7061C23.5852 11.7061 27.3813 15.5287 27.3813 20.2422C27.3813 24.9559 23.5852 28.7784 18.9044 28.7784C14.2237 28.7732 10.4276 24.9559 10.4276 20.2422Z" fill="white"/>
<path d="M11.8464 20.2421C11.8464 16.3194 15.0037 13.1348 18.9045 13.1348C22.7999 13.1348 25.9624 16.3142 25.9624 20.2421C25.9624 24.1649 22.8052 27.3495 18.9045 27.3495C15.0089 27.3495 11.8464 24.1649 11.8464 20.2421Z" fill="url(#paint0_linear_436_3975)"/>
<path d="M36.052 11.7219L25.5749 14.8168C25.5749 14.8168 23.9938 12.481 20.5957 11.7219C23.5435 11.706 36.052 11.7219 36.052 11.7219Z" fill="#EACA05"/>
<path d="M10.7366 22.5306C9.26513 19.9628 3.21252 9.43896 3.21252 9.43896L10.9721 17.1684C10.9721 17.1684 10.1762 18.8187 10.4747 21.1807L10.7364 22.5306H10.7366Z" fill="#DF3A32"/>
<defs>
<linearGradient id="paint0_linear_436_3975" x1="18.9041" y1="13.2351" x2="18.9041" y2="26.9216" gradientUnits="userSpaceOnUse">
<stop stop-color="#86BBE5"/>
<stop offset="1" stop-color="#1072BA"/>
</linearGradient>
</defs>
</svg>
