<svg width="38" height="39" viewBox="0 0 38 39" fill="none" xmlns="http://www.w3.org/2000/svg">
<g clip-path="url(#clip0_436_3984)">
<path d="M27.1962 13.8628C29.6398 15.6344 32.6334 16.6768 35.8666 16.6768V10.3667C35.2547 10.3668 34.6444 10.3021 34.0457 10.1735V15.1404C30.8128 15.1404 27.8196 14.098 25.3753 12.3265V25.2036C25.3753 31.6453 20.2265 36.867 13.8754 36.867C11.5056 36.867 9.30307 36.1404 7.47339 34.8942C9.56167 37.0598 12.4739 38.4032 15.6958 38.4032C22.0473 38.4032 27.1964 33.1815 27.1964 26.7395V13.8628H27.1962ZM29.4424 7.49668C28.1935 6.11294 27.3736 4.32471 27.1962 2.34774V1.53613H25.4707C25.905 4.04885 27.3864 6.19557 29.4424 7.49668ZM11.4904 29.951C10.7927 29.0232 10.4157 27.8881 10.4173 26.7211C10.4173 23.7749 12.7724 21.386 15.6779 21.386C16.2194 21.3859 16.7576 21.47 17.2737 21.6361V15.185C16.6706 15.1011 16.062 15.0655 15.4536 15.0786V20.0998C14.9372 19.9338 14.3987 19.8494 13.8571 19.8499C10.9516 19.8499 8.59663 22.2385 8.59663 25.1851C8.59663 27.2686 9.77377 29.0723 11.4904 29.951Z" fill="#FF004F"/>
<path d="M25.3752 12.3264C27.8195 14.0979 30.8127 15.1403 34.0456 15.1403V10.1734C32.241 9.7835 30.6435 8.82704 29.4423 7.49668C27.3862 6.19544 25.9049 4.04872 25.4706 1.53613H20.9381V26.7393C20.9279 29.6774 18.5768 32.0565 15.6776 32.0565C13.9691 32.0565 12.4512 31.2305 11.49 29.951C9.77342 29.0723 8.59628 27.2684 8.59628 25.1852C8.59628 22.2389 10.9512 19.8501 13.8567 19.8501C14.4134 19.8501 14.95 19.938 15.4533 20.1V15.0787C9.21375 15.2095 4.19568 20.3802 4.19568 26.7394C4.19568 29.9139 5.44529 32.7917 7.47343 34.8944C9.30311 36.1404 11.5057 36.8671 13.8754 36.8671C20.2266 36.8671 25.3754 31.6452 25.3754 25.2036V12.3264H25.3752Z" fill="black"/>
<path d="M34.0457 10.1733V8.83031C32.4184 8.83281 30.823 8.3706 29.4423 7.49652C30.6645 8.85364 32.2739 9.7894 34.0457 10.1733ZM25.4706 1.5361C25.4292 1.29597 25.3974 1.05425 25.3753 0.81161V0H19.1172V25.2034C19.1072 28.1412 16.7563 30.5202 13.8568 30.5202C13.0055 30.5202 12.2018 30.3153 11.49 29.9511C12.4513 31.2305 13.9691 32.0563 15.6776 32.0563C18.5766 32.0563 20.928 29.6775 20.9382 26.7394V1.5361H25.4706ZM15.4536 15.0787V13.649C14.9306 13.5765 14.4034 13.5401 13.8756 13.5404C7.52387 13.5402 2.375 18.7622 2.375 25.2034C2.375 29.2417 4.39859 32.8006 7.4736 34.8941C5.44546 32.7915 4.19585 29.9136 4.19585 26.7392C4.19585 20.3801 9.21379 15.2094 15.4536 15.0787Z" fill="#00F2EA"/>
</g>
<defs>
<clipPath id="clip0_436_3984">
<rect width="38" height="38.4032" fill="white"/>
</clipPath>
</defs>
</svg>
