<svg width="39" height="39" viewBox="0 0 39 39" fill="none" xmlns="http://www.w3.org/2000/svg">
<path d="M37.2432 9.89769C37.0283 9.08068 36.6049 8.33503 36.0154 7.73536C35.4258 7.13569 34.6907 6.70303 33.8836 6.48068C30.9127 5.67334 19.0377 5.67334 19.0377 5.67334C19.0377 5.67334 7.16272 5.67334 4.19181 6.48068C3.38478 6.70303 2.64968 7.13569 2.06009 7.73536C1.4705 8.33503 1.0471 9.08068 0.832265 9.89769C0.0377198 12.9132 0.0377197 19.2017 0.0377197 19.2017C0.0377197 19.2017 0.0377198 25.4903 0.832265 28.5058C1.0471 29.3228 1.4705 30.0684 2.06009 30.6681C2.64968 31.2678 3.38478 31.7004 4.19181 31.9228C7.16272 32.7301 19.0377 32.7301 19.0377 32.7301C19.0377 32.7301 30.9127 32.7301 33.8836 31.9228C34.6907 31.7004 35.4258 31.2678 36.0154 30.6681C36.6049 30.0684 37.0283 29.3228 37.2432 28.5058C38.0377 25.4903 38.0377 19.2017 38.0377 19.2017C38.0377 19.2017 38.0377 12.9132 37.2432 9.89769Z" fill="#FF0302"/>
<path d="M15.1514 24.9118V13.4912L25.0832 19.2015L15.1514 24.9118Z" fill="#FEFEFE"/>
</svg>
