<svg width="42" height="42" viewBox="0 0 42 42" fill="none" xmlns="http://www.w3.org/2000/svg">
<path fill-rule="evenodd" clip-rule="evenodd" d="M4.67157 4.67157C3.5 5.84315 3.5 7.72876 3.5 11.5V30.5C3.5 34.2712 3.5 36.1569 4.67157 37.3284C5.84315 38.5 7.72876 38.5 11.5 38.5H30.5C34.2712 38.5 36.1569 38.5 37.3284 37.3284C38.5 36.1569 38.5 34.2712 38.5 30.5V11.5C38.5 7.72876 38.5 5.84315 37.3284 4.67157C37.153 4.4961 36.9615 4.3469 36.75 4.22005V29.75C35.7973 29.75 35.3209 29.75 34.872 29.6452C34.4472 29.5459 34.0415 29.3779 33.6709 29.1476C33.2794 28.9044 32.9425 28.5675 32.2688 27.8939L29.9534 25.5784C28.6201 24.2451 27.9534 23.5784 27.125 23.5784C26.2966 23.5784 25.6299 24.2451 24.2966 25.5784L22.2138 27.6612L22.2138 27.6612C21.2674 28.6076 20.7942 29.0808 20.2732 28.9804C19.7522 28.8801 19.4886 28.265 18.9613 27.0348L17.2023 22.9304C16.1479 20.47 15.6206 19.2398 14.5786 19.0392C13.5365 18.8385 12.5901 19.7849 10.6973 21.6777L5.25 27.125V4.22005C5.03855 4.3469 4.84705 4.4961 4.67157 4.67157ZM11.2583 3.50001H30.7417C30.662 3.5 30.5814 3.5 30.5 3.5H11.5C11.4186 3.5 11.338 3.5 11.2583 3.50001Z" fill="#2D60FF"/>
<path d="M4 11.5C4 9.60025 4.00106 8.22573 4.14199 7.17754C4.28098 6.14373 4.54772 5.50253 5.02513 5.02513C5.50253 4.54772 6.14373 4.28098 7.17754 4.14199C8.22573 4.00106 9.60025 4 11.5 4H30.5C32.3998 4 33.7743 4.00106 34.8225 4.14199C35.8563 4.28098 36.4975 4.54772 36.9749 5.02513C37.4523 5.50253 37.719 6.14373 37.858 7.17754C37.9989 8.22573 38 9.60025 38 11.5V30.5C38 32.3998 37.9989 33.7743 37.858 34.8225C37.719 35.8563 37.4523 36.4975 36.9749 36.9749C36.4975 37.4523 35.8563 37.719 34.8225 37.858C33.7743 37.9989 32.3998 38 30.5 38H11.5C9.60025 38 8.22573 37.9989 7.17754 37.858C6.14373 37.719 5.50253 37.4523 5.02513 36.9749C4.54772 36.4975 4.28098 35.8563 4.14199 34.8225C4.00106 33.7743 4 32.3998 4 30.5V11.5Z" stroke="#2D60FF"/>
<path d="M29.25 15.75C29.25 17.4069 27.9069 18.75 26.25 18.75C24.5931 18.75 23.25 17.4069 23.25 15.75C23.25 14.0931 24.5931 12.75 26.25 12.75C27.9069 12.75 29.25 14.0931 29.25 15.75Z" stroke="#2D60FF" stroke-linecap="round"/>
</svg>
