<svg width="26" height="25" viewBox="0 0 26 25" fill="none" xmlns="http://www.w3.org/2000/svg">
<rect width="26" height="25" rx="6" fill="#B1B1B1"/>
<path d="M13.9425 15.6979L11.1908 13.0833L11.2233 13.0521C13.0586 11.0907 14.4299 8.77004 15.2425 6.24998H18.4166V4.16665H10.8333V2.08331H8.66665V4.16665H1.08331V6.24998H13.1841C12.4583 8.24998 11.31 10.1562 9.74998 11.8229C8.74248 10.75 7.90831 9.5729 7.24748 8.33331H5.08081C5.87165 10.0312 6.95498 11.6354 8.30915 13.0833L2.79498 18.3125L4.33331 19.7916L9.74998 14.5833L13.1191 17.8229L13.9425 15.6979ZM20.0416 10.4166H17.875L13 22.9166H15.1666L16.38 19.7916H21.5258L22.75 22.9166H24.9166L20.0416 10.4166ZM17.2033 17.7083L18.9583 13.1979L20.7133 17.7083H17.2033Z" fill="white"/>
</svg>
