<svg width="26" height="25" viewBox="0 0 26 25" fill="none" xmlns="http://www.w3.org/2000/svg">
<path d="M17.6666 16.6667H9.02789C7.65658 16.6667 6.97093 16.6667 6.37808 16.9369C6.23471 17.0023 6.09672 17.0788 5.96537 17.1659C5.42225 17.5257 5.05927 18.1074 4.33331 19.2708V7.125C4.33331 5.23938 4.33331 4.29657 4.9191 3.71079C5.50489 3.125 6.4477 3.125 8.33331 3.125H17.6666C19.5523 3.125 20.4951 3.125 21.0809 3.71079C21.6666 4.29657 21.6666 5.23938 21.6666 7.125V12.6667C21.6666 14.5523 21.6666 15.4951 21.0809 16.0809C20.4951 16.6667 19.5523 16.6667 17.6666 16.6667Z" fill="#2D60FF"/>
<path d="M21.6666 12.5V17.875C21.6666 19.7606 21.6666 20.7034 21.0809 21.2892C20.4951 21.875 19.5523 21.875 17.6666 21.875H6.93748C5.49924 21.875 4.33331 20.7091 4.33331 19.2708V19.2708C4.33331 17.8326 5.49924 16.6667 6.93748 16.6667H17.6666C19.5523 16.6667 20.4951 16.6667 21.0809 16.0809C21.6666 15.4951 21.6666 14.5523 21.6666 12.6667V7.125C21.6666 5.23938 21.6666 4.29657 21.0809 3.71079C20.4951 3.125 19.5523 3.125 17.6666 3.125H8.33331C6.4477 3.125 5.50489 3.125 4.9191 3.71079C4.33331 4.29657 4.33331 5.23938 4.33331 7.125V19.2708" stroke="#2D60FF" stroke-width="1.2"/>
<path d="M9.75 10.4166L11.2236 11.8335C11.6107 12.2057 12.2227 12.2057 12.6098 11.8335L16.25 8.33325" stroke="#2D60FF" stroke-width="1.2" stroke-linecap="round"/>
</svg>
