<svg width="40" height="40" viewBox="0 0 40 40" fill="none" xmlns="http://www.w3.org/2000/svg">
<path d="M39 20.122C39 25.2146 36.9982 30.0986 33.435 33.6996C29.8718 37.3006 25.0391 39.3236 20 39.3236C14.9609 39.3236 10.1281 37.3006 6.56495 33.6996C3.00177 30.0986 1 25.2146 1 20.122C1 15.0294 3.00177 10.1454 6.56495 6.54445C10.1281 2.94345 14.9609 0.920426 20 0.92041C25.0391 0.92041 29.8718 2.94342 33.435 6.54442C36.9982 10.1454 39 15.0294 39 20.122Z" fill="url(#paint0_linear_436_3967)" stroke="#CDCDCD" stroke-width="0.753985" stroke-linecap="round" stroke-linejoin="round"/>
<path d="M37.5111 20.1218C37.5111 24.8153 35.6662 29.3166 32.3822 32.6355C29.0982 35.9543 24.6442 37.8188 19.9999 37.8188C15.3557 37.8188 10.9016 35.9543 7.61766 32.6354C4.33368 29.3166 2.48877 24.8153 2.48877 20.1218C2.48877 15.4283 4.33368 10.927 7.61766 7.60816C10.9016 4.28933 15.3557 2.42482 19.9999 2.4248C24.6442 2.4248 29.0982 4.28931 32.3822 7.60814C35.6662 10.927 37.5111 15.4283 37.5111 20.1218Z" fill="url(#paint1_radial_436_3967)"/>
<path d="M20.0001 3.34815C19.9665 3.34806 19.9333 3.35468 19.9022 3.36762C19.8712 3.38056 19.843 3.39957 19.8193 3.42355C19.7956 3.44753 19.7768 3.47601 19.764 3.50736C19.7512 3.5387 19.7446 3.5723 19.7447 3.60621V6.58227C19.7446 6.61618 19.7512 6.64978 19.764 6.68112C19.7768 6.71247 19.7956 6.74095 19.8193 6.76493C19.843 6.78891 19.8712 6.80791 19.9022 6.82085C19.9333 6.83379 19.9665 6.84041 20.0001 6.84033C20.0336 6.8404 20.0668 6.83377 20.0978 6.82082C20.1288 6.80787 20.157 6.78886 20.1807 6.76489C20.2044 6.74091 20.2232 6.71243 20.236 6.68109C20.2488 6.64976 20.2554 6.61617 20.2553 6.58227V3.60615C20.2554 3.57225 20.2488 3.53866 20.236 3.50733C20.2232 3.47599 20.2044 3.44752 20.1807 3.42355C20.157 3.39958 20.1288 3.38058 20.0978 3.36764C20.0668 3.3547 20.0335 3.34807 20 3.34815H20.0001ZM18.3298 3.4548C18.3126 3.45294 18.2951 3.45302 18.2779 3.45505C18.2445 3.45849 18.2122 3.46856 18.1826 3.48468C18.1531 3.5008 18.1271 3.52265 18.1059 3.54898C18.0848 3.57531 18.069 3.6056 18.0595 3.63811C18.05 3.67062 18.0469 3.70471 18.0504 3.73843L18.1792 4.98351C18.1826 5.01723 18.1925 5.04995 18.2085 5.07978C18.2244 5.1096 18.246 5.13595 18.2721 5.15731C18.2982 5.17867 18.3281 5.19462 18.3603 5.20424C18.3925 5.21386 18.4262 5.21696 18.4596 5.21337C18.4929 5.20993 18.5253 5.19986 18.5548 5.18373C18.5844 5.16761 18.6104 5.14575 18.6316 5.11941C18.6527 5.09308 18.6685 5.06278 18.678 5.03026C18.6875 4.99775 18.6906 4.96365 18.687 4.92993L18.5584 3.68491C18.5525 3.62578 18.5264 3.57055 18.4847 3.5286C18.4431 3.48666 18.3883 3.46058 18.3298 3.4548H18.3298ZM21.6819 3.45603C21.6234 3.46178 21.5686 3.48782 21.5269 3.52974C21.4852 3.57167 21.4591 3.62688 21.4531 3.68602L21.3236 4.93097C21.32 4.96469 21.3231 4.99879 21.3326 5.03132C21.3421 5.06384 21.3578 5.09415 21.379 5.1205C21.4001 5.14685 21.4261 5.16873 21.4557 5.18488C21.4852 5.20103 21.5175 5.21113 21.5509 5.2146C21.5843 5.21821 21.618 5.21514 21.6502 5.20554C21.6823 5.19595 21.7123 5.18003 21.7384 5.15869C21.7645 5.13735 21.7861 5.11102 21.8021 5.08121C21.818 5.0514 21.828 5.0187 21.8314 4.98498L21.961 3.7399C21.9646 3.70619 21.9615 3.67209 21.952 3.63957C21.9425 3.60706 21.9267 3.57676 21.9056 3.55042C21.8845 3.52407 21.8584 3.50221 21.8289 3.48607C21.7994 3.46994 21.767 3.45985 21.7337 3.4564C21.7165 3.45462 21.6991 3.45451 21.6819 3.45609L21.6819 3.45603ZM16.6141 3.70625C16.5762 3.70634 16.5387 3.715 16.5045 3.73158C16.4703 3.74817 16.4402 3.77226 16.4164 3.8021C16.3926 3.83194 16.3757 3.86678 16.3669 3.90407C16.3581 3.94136 16.3577 3.98016 16.3657 4.01764L16.9755 6.92921C16.9824 6.9624 16.9956 6.99389 17.0146 7.02186C17.0335 7.04984 17.0578 7.07376 17.0859 7.09225C17.114 7.11074 17.1455 7.12343 17.1785 7.1296C17.2115 7.13576 17.2453 7.13528 17.2781 7.12819C17.311 7.12124 17.3421 7.10782 17.3698 7.08868C17.3975 7.06954 17.4212 7.04506 17.4394 7.01665C17.4577 6.98824 17.4703 6.95646 17.4764 6.92313C17.4825 6.8898 17.4821 6.85558 17.4751 6.82243L16.8652 3.9108C16.8532 3.85262 16.8216 3.80045 16.7758 3.76313C16.73 3.72582 16.6729 3.70565 16.6141 3.70606V3.70625ZM23.3975 3.7087C23.3387 3.70819 23.2816 3.72829 23.2358 3.76557C23.19 3.80285 23.1583 3.85501 23.1463 3.91319L22.5343 6.82433C22.5273 6.85748 22.5268 6.89171 22.5329 6.92506C22.5389 6.9584 22.5515 6.9902 22.5697 7.01863C22.588 7.04707 22.6117 7.07157 22.6394 7.09074C22.667 7.10991 22.6982 7.12336 22.731 7.13033C22.7638 7.13745 22.7977 7.13795 22.8307 7.13181C22.8637 7.12567 22.8951 7.113 22.9232 7.09453C22.9514 7.07607 22.9756 7.05217 22.9946 7.02421C23.0136 6.99625 23.0269 6.96478 23.0338 6.93161L23.6458 4.0204C23.6538 3.98292 23.6533 3.94412 23.6446 3.90683C23.6358 3.86954 23.6189 3.8347 23.5951 3.80484C23.5713 3.77499 23.5413 3.75089 23.5071 3.73428C23.4729 3.71768 23.4355 3.709 23.3975 3.70888V3.7087ZM14.9767 4.17284C14.9426 4.16972 14.9083 4.17377 14.8759 4.18474C14.8439 4.19514 14.8144 4.21181 14.7888 4.2338C14.7633 4.25578 14.7423 4.28265 14.7271 4.31285C14.7119 4.34305 14.7027 4.376 14.7001 4.4098C14.6975 4.44359 14.7015 4.47758 14.7119 4.5098L15.0947 5.70044C15.1049 5.73272 15.1215 5.76262 15.1432 5.78842C15.165 5.81423 15.1916 5.83544 15.2215 5.85084C15.2514 5.86623 15.284 5.87551 15.3174 5.87813C15.3509 5.88076 15.3845 5.87668 15.4164 5.86613C15.4484 5.85572 15.4779 5.83904 15.5035 5.81704C15.529 5.79505 15.55 5.76817 15.5652 5.73795C15.5805 5.70774 15.5896 5.67478 15.5922 5.64097C15.5948 5.60716 15.5908 5.57317 15.5803 5.54095L15.1975 4.35036C15.1821 4.30207 15.1529 4.25945 15.1136 4.22787C15.0744 4.19628 15.0267 4.17714 14.9767 4.17284ZM25.0257 4.17346C24.9757 4.17776 24.928 4.19691 24.8887 4.22849C24.8494 4.26007 24.8202 4.30269 24.8048 4.35097L24.4218 5.5415C24.4114 5.57372 24.4073 5.6077 24.4099 5.64151C24.4125 5.67531 24.4217 5.70826 24.4369 5.73847C24.4521 5.76868 24.4731 5.79555 24.4987 5.81754C24.5242 5.83953 24.5538 5.85621 24.5857 5.86662C24.6176 5.87717 24.6512 5.88125 24.6846 5.87864C24.7181 5.87602 24.7507 5.86676 24.7806 5.85137C24.8105 5.83599 24.8371 5.81479 24.8588 5.789C24.8806 5.7632 24.8971 5.73332 24.9074 5.70106L25.2904 4.51041C25.3009 4.47819 25.3049 4.44421 25.3023 4.41041C25.2997 4.37661 25.2906 4.34367 25.2753 4.31346C25.2601 4.28325 25.2391 4.25638 25.2136 4.23438C25.1881 4.21239 25.1585 4.1957 25.1266 4.18529C25.0941 4.17458 25.0598 4.17056 25.0257 4.17346ZM13.3575 4.77172C13.3233 4.77241 13.2896 4.78004 13.2584 4.79416C13.2277 4.80786 13.2 4.82756 13.1769 4.85211C13.1538 4.87666 13.1357 4.90558 13.1236 4.93722C13.1116 4.96885 13.1059 5.00258 13.1068 5.03647C13.1077 5.07035 13.1152 5.10372 13.1288 5.13466L14.3249 7.85426C14.3385 7.88526 14.358 7.91326 14.3823 7.93663C14.4066 7.96001 14.4352 7.9783 14.4665 7.99047C14.4978 8.00263 14.5312 8.00843 14.5647 8.00752C14.5982 8.00662 14.6313 7.99903 14.6619 7.98519C14.6926 7.97149 14.7203 7.95181 14.7434 7.92726C14.7665 7.90272 14.7847 7.8738 14.7967 7.84216C14.8088 7.81052 14.8145 7.77679 14.8136 7.7429C14.8127 7.70901 14.8052 7.67563 14.7916 7.64468L13.5954 4.92515C13.5751 4.87871 13.5417 4.83936 13.4994 4.81205C13.4571 4.78474 13.4077 4.77069 13.3575 4.77166V4.77172ZM26.6632 4.78079C26.613 4.77982 26.5636 4.79383 26.5212 4.82106C26.4789 4.8483 26.4454 4.88755 26.425 4.93392L25.2253 7.65185C25.2116 7.68279 25.204 7.71615 25.2031 7.75004C25.2022 7.78393 25.2079 7.81767 25.2199 7.84932C25.2319 7.88098 25.2499 7.90992 25.273 7.9345C25.2961 7.95908 25.3238 7.97881 25.3545 7.99255C25.3851 8.00642 25.4181 8.01404 25.4516 8.01498C25.4852 8.01592 25.5186 8.01016 25.5499 7.99803C25.5812 7.9859 25.6098 7.96764 25.6342 7.94429C25.6585 7.92094 25.678 7.89297 25.6916 7.86198L26.8913 5.14417C26.9051 5.11323 26.9126 5.07986 26.9136 5.04596C26.9145 5.01207 26.9088 4.97832 26.8968 4.94666C26.8848 4.915 26.8667 4.88605 26.8436 4.86146C26.8205 4.83688 26.7928 4.81715 26.7621 4.80341C26.731 4.7893 26.6973 4.78161 26.6632 4.78079ZM11.8545 5.57533C11.8037 5.57164 11.753 5.58357 11.7091 5.60954C11.68 5.62643 11.6545 5.64896 11.634 5.67584C11.6136 5.70271 11.5986 5.73341 11.5899 5.76616C11.5812 5.79891 11.579 5.83307 11.5834 5.86667C11.5879 5.90028 11.5988 5.93268 11.6157 5.962L12.235 7.04617C12.2517 7.07557 12.274 7.10134 12.3006 7.122C12.3272 7.14267 12.3576 7.15782 12.39 7.16659C12.4224 7.17536 12.4562 7.17758 12.4894 7.17311C12.5227 7.16865 12.5547 7.15759 12.5838 7.14057C12.6128 7.12368 12.6383 7.10115 12.6588 7.07427C12.6792 7.04739 12.6942 7.0167 12.7029 6.98395C12.7116 6.9512 12.7138 6.91704 12.7094 6.88343C12.7049 6.84982 12.694 6.81743 12.6772 6.78811L12.0579 5.704C12.0371 5.66733 12.0076 5.63641 11.9721 5.61397C11.9367 5.59153 11.8963 5.57826 11.8546 5.57533H11.8545ZM28.1455 5.57533C28.1038 5.5782 28.0634 5.59144 28.0279 5.61388C27.9925 5.63631 27.9631 5.66725 27.9423 5.70394L27.3228 6.78811C27.306 6.81744 27.2951 6.84984 27.2906 6.88345C27.2862 6.91707 27.2884 6.95123 27.2971 6.98398C27.3058 7.01673 27.3208 7.04742 27.3413 7.07429C27.3617 7.10117 27.3873 7.12369 27.4164 7.14057C27.4454 7.15759 27.4774 7.16865 27.5107 7.17311C27.5439 7.17758 27.5777 7.17536 27.6101 7.16659C27.6425 7.15782 27.6729 7.14267 27.6995 7.122C27.7261 7.10134 27.7484 7.07557 27.7651 7.04617L28.3845 5.96194C28.4013 5.93262 28.4122 5.90022 28.4167 5.86661C28.4211 5.833 28.4189 5.79885 28.4102 5.7661C28.4015 5.73335 28.3865 5.70265 28.3661 5.67578C28.3456 5.6489 28.3201 5.62637 28.291 5.60948C28.247 5.58366 28.1963 5.57177 28.1455 5.57533ZM10.395 6.49523C10.3442 6.49708 10.295 6.51422 10.2538 6.54445C10.2266 6.5643 10.2036 6.58938 10.186 6.61826C10.1684 6.64714 10.1567 6.67924 10.1514 6.71273C10.1461 6.74621 10.1475 6.78042 10.1553 6.81338C10.1632 6.84635 10.1774 6.87742 10.1971 6.90482L11.9263 9.31382C11.946 9.3413 11.9708 9.36459 11.9994 9.38235C12.028 9.40011 12.0597 9.412 12.0929 9.41732C12.126 9.42265 12.1599 9.42131 12.1925 9.41338C12.2251 9.40545 12.2558 9.3911 12.283 9.37113C12.3102 9.35128 12.3332 9.3262 12.3508 9.29733C12.3683 9.26845 12.3801 9.23636 12.3854 9.20288C12.3906 9.1694 12.3893 9.1352 12.3815 9.10225C12.3736 9.06929 12.3594 9.03822 12.3397 9.01082L10.6104 6.60182C10.586 6.56756 10.5535 6.53992 10.516 6.52134C10.4784 6.50276 10.4369 6.49381 10.3951 6.49529L10.395 6.49523ZM29.6232 6.50835C29.5814 6.50679 29.5399 6.51568 29.5023 6.53421C29.4648 6.55273 29.4323 6.58034 29.4078 6.61457L27.6753 9.02124C27.6556 9.04862 27.6413 9.07967 27.6334 9.11263C27.6255 9.14558 27.6242 9.17979 27.6294 9.21328C27.6346 9.24677 27.6464 9.27888 27.6639 9.30778C27.6814 9.33668 27.7045 9.36179 27.7316 9.38167C27.7587 9.40167 27.7894 9.41608 27.822 9.42405C27.8546 9.43202 27.8885 9.43341 27.9216 9.42814C27.9548 9.42287 27.9865 9.41103 28.0151 9.39332C28.0437 9.3756 28.0686 9.35236 28.0883 9.32491L29.8206 6.9183C29.8404 6.89093 29.8547 6.85987 29.8625 6.82692C29.8704 6.79396 29.8718 6.75976 29.8666 6.72627C29.8613 6.69279 29.8496 6.66067 29.8321 6.63177C29.8145 6.60288 29.7915 6.57776 29.7643 6.55787C29.7232 6.52749 29.6741 6.51024 29.6232 6.50835ZM9.09056 7.60085C9.05705 7.59902 9.02351 7.60393 8.99189 7.6153C8.96027 7.62666 8.93119 7.64425 8.90635 7.66705C8.88137 7.68968 8.86106 7.71707 8.84659 7.74766C8.83211 7.77824 8.82376 7.81141 8.822 7.84526C8.82024 7.87911 8.82511 7.91298 8.83634 7.94493C8.84757 7.97687 8.86493 8.00626 8.88743 8.03141L9.71627 8.96191C9.73866 8.98715 9.76576 9.00768 9.79602 9.02231C9.82629 9.03693 9.85911 9.04538 9.89261 9.04715C9.92611 9.04892 9.95963 9.04398 9.99123 9.03263C10.0228 9.02127 10.0519 9.00372 10.0768 8.98097C10.1018 8.95834 10.1221 8.93094 10.1366 8.90035C10.151 8.86977 10.1594 8.83659 10.1612 8.80273C10.1629 8.76888 10.158 8.735 10.1468 8.70305C10.1356 8.6711 10.1182 8.64171 10.0957 8.61655L9.267 7.68612C9.24461 7.66086 9.2175 7.64032 9.18723 7.62569C9.15696 7.61106 9.12413 7.60262 9.09062 7.60085H9.09056ZM30.9113 7.60269C30.8436 7.60637 30.7802 7.63706 30.7349 7.68802L29.9061 8.61827C29.8836 8.64341 29.8662 8.6728 29.8549 8.70476C29.8437 8.73671 29.8388 8.77059 29.8405 8.80446C29.8423 8.83833 29.8506 8.87151 29.8651 8.90211C29.8796 8.9327 29.8999 8.96011 29.9249 8.98275C29.9498 9.00549 29.9789 9.02304 30.0105 9.0344C30.0421 9.04575 30.0756 9.05068 30.1091 9.0489C30.1426 9.04712 30.1754 9.03867 30.2057 9.02404C30.236 9.00941 30.2631 8.98887 30.2855 8.96362L31.1144 8.03337C31.1369 8.00821 31.1542 7.97881 31.1655 7.94686C31.1767 7.9149 31.1816 7.88102 31.1798 7.84716C31.1781 7.8133 31.1697 7.78012 31.1552 7.74953C31.1407 7.71893 31.1204 7.69153 31.0955 7.66889C31.0706 7.64614 31.0415 7.62858 31.01 7.61722C30.9784 7.60586 30.9449 7.60092 30.9114 7.60269H30.9113ZM7.84029 8.81455C7.8068 8.81637 7.77399 8.82484 7.74373 8.83948C7.71348 8.85412 7.68638 8.87464 7.66397 8.89987C7.64147 8.92502 7.6241 8.95441 7.61287 8.98636C7.60163 9.01831 7.59676 9.05219 7.59851 9.08605C7.60027 9.11991 7.60863 9.15309 7.62311 9.18368C7.63759 9.21426 7.65791 9.24166 7.6829 9.26429L9.8716 11.2554C9.89648 11.2782 9.92556 11.2957 9.95717 11.307C9.98878 11.3184 10.0223 11.3233 10.0558 11.3215C10.0893 11.3198 10.1221 11.3113 10.1524 11.2967C10.1826 11.2821 10.2097 11.2615 10.2321 11.2363C10.2546 11.2112 10.272 11.1818 10.2832 11.1498C10.2945 11.1179 10.2994 11.084 10.2976 11.0502C10.2959 11.0163 10.2875 10.9831 10.273 10.9525C10.2586 10.922 10.2382 10.8946 10.2133 10.8719L8.0245 8.88081C7.99962 8.85805 7.97053 8.84048 7.93891 8.82912C7.90728 8.81776 7.87375 8.81282 7.84023 8.81461L7.84029 8.81455ZM32.1676 8.82331C32.1341 8.82145 32.1006 8.82633 32.0689 8.83766C32.0373 8.849 32.0081 8.86656 31.9832 8.88933L29.7933 10.8789C29.7683 10.9015 29.748 10.9289 29.7335 10.9595C29.719 10.99 29.7106 11.0232 29.7088 11.0571C29.707 11.0909 29.7118 11.1248 29.723 11.1567C29.7342 11.1887 29.7516 11.2181 29.774 11.2433C29.7964 11.2685 29.8235 11.2891 29.8538 11.3037C29.8841 11.3184 29.9169 11.3269 29.9504 11.3287C29.9839 11.3305 30.0174 11.3256 30.0491 11.3142C30.0807 11.3029 30.1098 11.2854 30.1347 11.2627L32.3248 9.27305C32.3498 9.25044 32.3701 9.22306 32.3846 9.19249C32.3991 9.16192 32.4075 9.12875 32.4093 9.0949C32.4111 9.06105 32.4062 9.02717 32.395 8.99522C32.3838 8.96326 32.3664 8.93386 32.344 8.9087C32.3216 8.88343 32.2945 8.86287 32.2642 8.84822C32.234 8.83357 32.2011 8.8251 32.1676 8.82331ZM6.80056 10.1657C6.75877 10.1642 6.71725 10.1731 6.67968 10.1917C6.64211 10.2102 6.60965 10.2379 6.58518 10.2721C6.56539 10.2995 6.55115 10.3306 6.54328 10.3636C6.53541 10.3965 6.53406 10.4307 6.53931 10.4642C6.54456 10.4977 6.55632 10.5298 6.57389 10.5587C6.59146 10.5876 6.61451 10.6127 6.64171 10.6326L7.64383 11.3683C7.67092 11.3883 7.70165 11.4027 7.73426 11.4107C7.76687 11.4187 7.80072 11.42 7.83385 11.4147C7.86699 11.4094 7.89876 11.3976 7.92735 11.3798C7.95593 11.3621 7.98077 11.3388 8.00042 11.3113C8.0202 11.2839 8.03443 11.2529 8.04231 11.2199C8.05018 11.187 8.05153 11.1528 8.04629 11.1193C8.04105 11.0858 8.02932 11.0537 8.01177 11.0248C7.99421 10.9959 7.97119 10.9708 7.94401 10.9509L6.94182 10.2151C6.90067 10.1847 6.85147 10.1676 6.80056 10.1657ZM33.2063 10.1751C33.1555 10.1769 33.1063 10.1941 33.0651 10.2243L32.0625 10.9595C32.0353 10.9793 32.0123 11.0044 31.9947 11.0333C31.9771 11.0622 31.9653 11.0943 31.9601 11.1278C31.9548 11.1613 31.9561 11.1955 31.964 11.2284C31.9718 11.2614 31.986 11.2925 32.0058 11.3199C32.0254 11.3474 32.0502 11.3707 32.0788 11.3885C32.1074 11.4062 32.1391 11.4181 32.1723 11.4234C32.2054 11.4288 32.2392 11.4274 32.2719 11.4195C32.3045 11.4116 32.3352 11.3972 32.3623 11.3772L33.365 10.642C33.3922 10.6222 33.4152 10.5971 33.4328 10.5682C33.4504 10.5393 33.4621 10.5072 33.4674 10.4738C33.4727 10.4403 33.4713 10.4061 33.4635 10.3731C33.4556 10.3402 33.4414 10.3091 33.4217 10.2817C33.3972 10.2474 33.3648 10.2198 33.3272 10.2012C33.2896 10.1826 33.2481 10.1736 33.2063 10.1751ZM5.829 11.6069C5.78727 11.6098 5.7469 11.623 5.71145 11.6455C5.676 11.6679 5.64659 11.6988 5.62581 11.7355C5.60897 11.7648 5.59803 11.7972 5.59361 11.8308C5.58919 11.8644 5.59138 11.8986 5.60006 11.9313C5.60874 11.9641 5.62373 11.9948 5.64418 12.0217C5.66463 12.0485 5.69013 12.0711 5.71922 12.088L8.26954 13.576C8.29856 13.593 8.33061 13.6041 8.36387 13.6086C8.39712 13.613 8.43092 13.6108 8.46333 13.602C8.49573 13.5933 8.52611 13.5781 8.5527 13.5575C8.5793 13.5368 8.60159 13.511 8.6183 13.4816C8.63514 13.4523 8.64609 13.4199 8.65051 13.3863C8.65493 13.3527 8.65273 13.3185 8.64405 13.2858C8.63538 13.253 8.62038 13.2223 8.59993 13.1955C8.57948 13.1686 8.55398 13.1461 8.5249 13.1292L5.97457 11.6411C5.93052 11.6153 5.87982 11.6034 5.829 11.6069ZM34.1711 11.6069C34.1203 11.6032 34.0695 11.6151 34.0255 11.6411L31.4753 13.1292C31.4462 13.1461 31.4207 13.1686 31.4002 13.1955C31.3798 13.2223 31.3648 13.253 31.3561 13.2858C31.3474 13.3185 31.3452 13.3527 31.3497 13.3863C31.3541 13.4199 31.365 13.4523 31.3819 13.4816C31.3986 13.511 31.4209 13.5368 31.4475 13.5575C31.4741 13.5781 31.5044 13.5933 31.5368 13.602C31.5692 13.6108 31.603 13.613 31.6363 13.6086C31.6696 13.6041 31.7016 13.593 31.7306 13.576L34.281 12.088C34.3101 12.0711 34.3356 12.0486 34.356 12.0217C34.3765 11.9948 34.3915 11.9642 34.4002 11.9314C34.4088 11.8987 34.411 11.8645 34.4066 11.8309C34.4022 11.7973 34.3913 11.7649 34.3744 11.7356C34.3536 11.6989 34.3241 11.668 34.2887 11.6456C34.2532 11.6231 34.2128 11.6099 34.1711 11.607V11.6069ZM5.0943 13.1431C5.04409 13.142 4.99469 13.1559 4.95232 13.1832C4.90995 13.2104 4.87651 13.2497 4.85623 13.2961C4.84249 13.3271 4.83494 13.3604 4.834 13.3943C4.83306 13.4282 4.83875 13.462 4.85075 13.4936C4.86275 13.5253 4.88082 13.5542 4.90392 13.5788C4.92702 13.6034 4.9547 13.6231 4.98536 13.6369L6.11674 14.1469C6.14735 14.1608 6.18037 14.1684 6.21391 14.1694C6.24744 14.1703 6.28083 14.1646 6.31216 14.1524C6.34349 14.1403 6.37214 14.122 6.39647 14.0987C6.4208 14.0754 6.44032 14.0474 6.45392 14.0164C6.46766 13.9855 6.47521 13.9521 6.47615 13.9182C6.47708 13.8843 6.47138 13.8505 6.45938 13.8189C6.44738 13.7872 6.4293 13.7583 6.40619 13.7337C6.38309 13.7091 6.3554 13.6894 6.32473 13.6756L5.19341 13.1656C5.1622 13.1515 5.12849 13.1438 5.0943 13.1431V13.1431ZM34.9107 13.1537C34.8764 13.1545 34.8427 13.1621 34.8115 13.1762L33.6799 13.6854C33.6492 13.6991 33.6215 13.7188 33.5984 13.7434C33.5752 13.7679 33.5571 13.7969 33.5451 13.8285C33.5331 13.8602 33.5273 13.8939 33.5282 13.9278C33.5291 13.9617 33.5367 13.9951 33.5504 14.026C33.564 14.057 33.5835 14.085 33.6078 14.1084C33.6321 14.1318 33.6608 14.15 33.6921 14.1622C33.7234 14.1743 33.7568 14.1801 33.7904 14.1792C33.8239 14.1783 33.857 14.1707 33.8876 14.1568L35.0192 13.6476C35.0498 13.6339 35.0775 13.6142 35.1007 13.5896C35.1238 13.5651 35.1419 13.5361 35.1539 13.5045C35.1659 13.4728 35.1716 13.4391 35.1707 13.4052C35.1698 13.3713 35.1623 13.3379 35.1485 13.307C35.1283 13.2606 35.0948 13.2213 35.0525 13.194C35.0102 13.1668 34.9608 13.1528 34.9107 13.1537ZM4.4396 14.7487C4.38959 14.753 4.34193 14.7721 4.30263 14.8036C4.26333 14.8351 4.23412 14.8777 4.2187 14.926C4.20823 14.9582 4.20417 14.9922 4.20673 15.026C4.20929 15.0598 4.21844 15.0927 4.23364 15.1229C4.24884 15.1532 4.26979 15.1801 4.2953 15.2021C4.32081 15.2241 4.35037 15.2408 4.38228 15.2512L7.18226 16.1733C7.21413 16.1838 7.24777 16.188 7.28122 16.1854C7.31468 16.1828 7.3473 16.1735 7.37721 16.1582C7.40712 16.1428 7.43373 16.1216 7.45551 16.0958C7.4773 16.07 7.49382 16.0402 7.50415 16.0079C7.51461 15.9757 7.51867 15.9417 7.51611 15.9079C7.51354 15.8741 7.50439 15.8411 7.48918 15.8109C7.47398 15.7807 7.45302 15.7538 7.4275 15.7318C7.40199 15.7098 7.37242 15.6931 7.3405 15.6826L4.54053 14.7605C4.50801 14.7498 4.47369 14.7457 4.4396 14.7486V14.7487ZM35.5641 14.7597C35.5301 14.7566 35.4958 14.7607 35.4633 14.7716L32.6627 15.6917C32.6308 15.7021 32.6012 15.7188 32.5757 15.7408C32.5501 15.7628 32.5292 15.7896 32.5139 15.8198C32.4987 15.8501 32.4895 15.883 32.487 15.9168C32.4844 15.9506 32.4884 15.9846 32.4989 16.0168C32.5092 16.0491 32.5257 16.079 32.5475 16.1048C32.5692 16.1306 32.5958 16.1518 32.6257 16.1671C32.6556 16.1825 32.6882 16.1918 32.7217 16.1944C32.7551 16.197 32.7888 16.1929 32.8206 16.1823L35.6212 15.2624C35.6531 15.252 35.6827 15.2353 35.7082 15.2133C35.7338 15.1913 35.7547 15.1644 35.77 15.1342C35.7852 15.104 35.7944 15.071 35.797 15.0372C35.7996 15.0034 35.7955 14.9694 35.7851 14.9372C35.7697 14.8889 35.7405 14.8463 35.7012 14.8147C35.6619 14.7831 35.6142 14.764 35.5641 14.7597V14.7597ZM4.0317 16.434C3.97287 16.4335 3.91569 16.4536 3.86987 16.4909C3.82406 16.5282 3.79242 16.5804 3.78035 16.6386C3.7733 16.6717 3.77281 16.706 3.77889 16.7393C3.78498 16.7726 3.79752 16.8044 3.81579 16.8329C3.83407 16.8613 3.85772 16.8858 3.8854 16.905C3.91307 16.9241 3.94422 16.9376 3.97705 16.9446L5.18874 17.2048C5.22154 17.212 5.25541 17.2125 5.2884 17.2063C5.3214 17.2002 5.35286 17.1875 5.381 17.169C5.40913 17.1506 5.43338 17.1266 5.45234 17.0987C5.47131 17.0707 5.48463 17.0392 5.49152 17.0061C5.49857 16.9729 5.49906 16.9387 5.49298 16.9053C5.48691 16.872 5.47437 16.8402 5.4561 16.8118C5.43783 16.7833 5.41418 16.7588 5.38652 16.7397C5.35885 16.7205 5.32771 16.707 5.29488 16.7001L4.08325 16.4398C4.0663 16.4362 4.04903 16.4343 4.0317 16.4343V16.434ZM35.9689 16.4365C35.9516 16.4369 35.9344 16.4387 35.9175 16.442L34.7057 16.7021C34.6729 16.7091 34.6418 16.7226 34.6141 16.7417C34.5864 16.7609 34.5628 16.7854 34.5445 16.8138C34.5263 16.8422 34.5137 16.874 34.5076 16.9073C34.5015 16.9407 34.502 16.9749 34.5091 17.008C34.516 17.0412 34.5293 17.0727 34.5482 17.1007C34.5672 17.1286 34.5915 17.1525 34.6196 17.171C34.6477 17.1895 34.6792 17.2022 34.7122 17.2084C34.7452 17.2145 34.779 17.214 34.8119 17.2069L36.0235 16.9468C36.0563 16.9398 36.0875 16.9263 36.1151 16.9072C36.1428 16.888 36.1665 16.8635 36.1847 16.8351C36.203 16.8066 36.2156 16.7748 36.2217 16.7415C36.2277 16.7082 36.2273 16.6739 36.2202 16.6408C36.2081 16.5826 36.1765 16.5305 36.1307 16.4932C36.0849 16.4559 36.0277 16.4358 35.9689 16.4362V16.4365ZM3.72291 18.1293C3.66439 18.135 3.60963 18.161 3.56791 18.2029C3.5262 18.2448 3.50011 18.2999 3.49406 18.359C3.49045 18.3927 3.49346 18.4268 3.50292 18.4594C3.51239 18.4919 3.52812 18.5222 3.54922 18.5486C3.57031 18.575 3.59636 18.5969 3.62585 18.613C3.65535 18.6292 3.68771 18.6393 3.72109 18.6428L6.64959 18.9557C6.68296 18.9593 6.71671 18.9563 6.7489 18.9467C6.7811 18.9372 6.81111 18.9213 6.8372 18.8999C6.8633 18.8786 6.88497 18.8523 6.90096 18.8225C6.91696 18.7926 6.92697 18.7599 6.93042 18.7262C6.93403 18.6925 6.931 18.6584 6.92153 18.6258C6.91205 18.5933 6.8963 18.563 6.8752 18.5366C6.85409 18.5102 6.82803 18.4884 6.79853 18.4722C6.76903 18.456 6.73665 18.4459 6.70327 18.4424L3.77471 18.1295C3.75749 18.1277 3.74014 18.1277 3.72291 18.1293ZM36.2798 18.1516C36.2625 18.1497 36.2451 18.1498 36.2279 18.1518L33.299 18.4607C33.2656 18.4642 33.2333 18.4742 33.2038 18.4903C33.1742 18.5065 33.1482 18.5283 33.127 18.5546C33.1059 18.581 33.0901 18.6113 33.0806 18.6438C33.0711 18.6763 33.068 18.7104 33.0716 18.7441C33.075 18.7778 33.0849 18.8105 33.1009 18.8404C33.1168 18.8702 33.1385 18.8966 33.1645 18.9179C33.1906 18.9393 33.2206 18.9552 33.2528 18.9648C33.2849 18.9745 33.3187 18.9776 33.352 18.974L36.2809 18.665C36.3143 18.6616 36.3466 18.6515 36.3762 18.6354C36.4057 18.6193 36.4317 18.5974 36.4529 18.5711C36.474 18.5448 36.4898 18.5145 36.4993 18.482C36.5088 18.4494 36.5119 18.4154 36.5084 18.3816C36.5024 18.3225 36.4764 18.2673 36.4347 18.2253C36.3931 18.1834 36.3383 18.1573 36.2798 18.1515V18.1516ZM3.67335 19.8647C3.6398 19.8646 3.60656 19.8712 3.57554 19.8842C3.54452 19.8971 3.51634 19.9161 3.49261 19.9401C3.46889 19.9641 3.45008 19.9925 3.43727 20.0239C3.42447 20.0552 3.41792 20.0888 3.418 20.1227C3.41794 20.1566 3.4245 20.1902 3.43731 20.2215C3.45012 20.2529 3.46893 20.2813 3.49266 20.3053C3.51638 20.3293 3.54456 20.3483 3.57557 20.3612C3.60658 20.3741 3.63981 20.3808 3.67335 20.3807H4.91209C4.94564 20.3807 4.97887 20.3741 5.00988 20.3612C5.04089 20.3482 5.06907 20.3292 5.09279 20.3053C5.11652 20.2813 5.13533 20.2528 5.14814 20.2215C5.16095 20.1902 5.16751 20.1566 5.16745 20.1227C5.16752 20.0888 5.16096 20.0552 5.14816 20.0238C5.13535 19.9925 5.11654 19.964 5.09282 19.94C5.06909 19.9161 5.04091 19.8971 5.0099 19.8841C4.97888 19.8712 4.94565 19.8645 4.91209 19.8646L3.67335 19.8647ZM35.088 19.8647C35.0544 19.8646 35.0212 19.8712 34.9901 19.8842C34.9591 19.8971 34.9309 19.9161 34.9072 19.9401C34.8835 19.9641 34.8647 19.9925 34.8519 20.0239C34.8391 20.0552 34.8325 20.0888 34.8326 20.1227C34.8325 20.1566 34.8391 20.1902 34.8519 20.2215C34.8647 20.2529 34.8835 20.2813 34.9073 20.3053C34.931 20.3293 34.9592 20.3483 34.9902 20.3612C35.0212 20.3741 35.0544 20.3808 35.088 20.3807H36.3267C36.3602 20.3807 36.3935 20.3741 36.4245 20.3612C36.4555 20.3482 36.4837 20.3292 36.5074 20.3053C36.5311 20.2813 36.5499 20.2528 36.5627 20.2215C36.5755 20.1902 36.5821 20.1566 36.582 20.1227C36.5821 20.0888 36.5755 20.0552 36.5627 20.0238C36.5499 19.9925 36.5311 19.964 36.5074 19.94C36.4836 19.916 36.4555 19.897 36.4244 19.8841C36.3934 19.8711 36.3602 19.8645 36.3266 19.8646L35.088 19.8647ZM6.69981 21.2711C6.68259 21.2693 6.66522 21.2694 6.64801 21.2714L3.71903 21.5803C3.68565 21.5837 3.65328 21.5938 3.62377 21.6099C3.59425 21.626 3.56818 21.6479 3.54705 21.6742C3.52591 21.7005 3.51013 21.7308 3.50061 21.7633C3.49109 21.7958 3.48802 21.8299 3.49157 21.8637C3.49498 21.8974 3.50494 21.9301 3.52089 21.9599C3.53685 21.9897 3.55847 22.0161 3.58452 22.0375C3.61058 22.0588 3.64055 22.0748 3.67272 22.0844C3.70489 22.094 3.73862 22.0971 3.77198 22.0935L6.70097 21.7846C6.73434 21.7811 6.76671 21.7711 6.79623 21.7549C6.82574 21.7388 6.85181 21.717 6.87295 21.6906C6.89408 21.6643 6.90986 21.634 6.91938 21.6015C6.9289 21.569 6.93197 21.5349 6.92842 21.5012C6.92244 21.4421 6.8964 21.3869 6.85472 21.3449C6.81304 21.303 6.75829 21.2769 6.69975 21.2711H6.69981ZM33.2985 21.2894C33.24 21.2951 33.1852 21.3211 33.1435 21.363C33.1018 21.4049 33.0757 21.46 33.0697 21.5192C33.0661 21.5529 33.0691 21.587 33.0786 21.6195C33.088 21.652 33.1038 21.6823 33.1248 21.7087C33.1459 21.735 33.172 21.7569 33.2015 21.7731C33.2309 21.7893 33.2633 21.7994 33.2967 21.8029L36.2252 22.1158C36.2586 22.1194 36.2923 22.1164 36.3245 22.1068C36.3567 22.0972 36.3867 22.0813 36.4128 22.06C36.4389 22.0387 36.4605 22.0123 36.4765 21.9825C36.4925 21.9527 36.5025 21.92 36.506 21.8863C36.5096 21.8526 36.5066 21.8185 36.4971 21.7859C36.4876 21.7534 36.4719 21.7231 36.4508 21.6967C36.4297 21.6704 36.4036 21.6485 36.3741 21.6323C36.3446 21.6162 36.3123 21.6061 36.2789 21.6026L33.3505 21.2897C33.3332 21.2878 33.3158 21.2878 33.2985 21.2894ZM5.23987 23.0325C5.22254 23.0326 5.20527 23.0345 5.18831 23.0381L3.97662 23.2982C3.94379 23.3052 3.91264 23.3186 3.88497 23.3378C3.8573 23.357 3.83364 23.3815 3.81537 23.4099C3.79709 23.4383 3.78455 23.4701 3.77847 23.5035C3.77239 23.5368 3.77288 23.571 3.77992 23.6042C3.78682 23.6374 3.80013 23.6689 3.8191 23.6968C3.83807 23.7248 3.86232 23.7487 3.89045 23.7672C3.91858 23.7856 3.95005 23.7983 3.98304 23.8045C4.01604 23.8106 4.04991 23.8101 4.08271 23.803L5.29446 23.543C5.32728 23.536 5.35842 23.5225 5.38609 23.5034C5.41376 23.4842 5.4374 23.4597 5.45568 23.4312C5.47395 23.4028 5.48648 23.371 5.49256 23.3377C5.49864 23.3043 5.49814 23.2701 5.4911 23.237C5.47903 23.1788 5.44742 23.1266 5.40162 23.0893C5.35583 23.052 5.29868 23.0319 5.23987 23.0324V23.0325ZM34.7598 23.035C34.701 23.0345 34.6439 23.0546 34.5981 23.0918C34.5523 23.1291 34.5206 23.1813 34.5086 23.2394C34.5015 23.2726 34.501 23.3068 34.5071 23.3401C34.5131 23.3735 34.5257 23.4053 34.5439 23.4337C34.5622 23.4622 34.5858 23.4867 34.6135 23.5058C34.6411 23.525 34.6723 23.5385 34.7051 23.5455L35.9169 23.8057C35.9496 23.8128 35.9835 23.8133 36.0165 23.8072C36.0495 23.8011 36.081 23.7884 36.1091 23.77C36.1372 23.7515 36.1615 23.7276 36.1805 23.6997C36.1995 23.6717 36.2128 23.6403 36.2197 23.6071C36.2268 23.5739 36.2273 23.5397 36.2212 23.5063C36.2151 23.473 36.2026 23.4411 36.1843 23.4127C36.166 23.3842 36.1424 23.3597 36.1147 23.3405C36.087 23.3214 36.0558 23.3079 36.023 23.3009L34.8114 23.0407C34.7944 23.0371 34.7771 23.0352 34.7598 23.0352V23.035ZM7.28027 24.0512C7.24622 24.0481 7.21189 24.0522 7.17947 24.0631L4.37882 24.9831C4.3469 24.9936 4.31733 25.0102 4.2918 25.0322C4.26628 25.0542 4.2453 25.0811 4.23008 25.1113C4.21486 25.1415 4.20569 25.1745 4.2031 25.2083C4.20051 25.2421 4.20456 25.2761 4.215 25.3083C4.22529 25.3405 4.2418 25.3704 4.26356 25.3962C4.28532 25.422 4.31191 25.4432 4.3418 25.4586C4.3717 25.474 4.4043 25.4833 4.43775 25.4859C4.47119 25.4885 4.50482 25.4844 4.5367 25.4739L7.33723 24.5538C7.36916 24.5434 7.39874 24.5267 7.42427 24.5047C7.4498 24.4827 7.47079 24.4559 7.48602 24.4257C7.50125 24.3955 7.51043 24.3625 7.51303 24.3287C7.51563 24.2949 7.5116 24.2609 7.50118 24.2287C7.48575 24.1804 7.45656 24.1378 7.41726 24.1062C7.37796 24.0746 7.3303 24.0555 7.28027 24.0512V24.0512ZM32.7169 24.0604C32.6668 24.0646 32.6192 24.0837 32.5799 24.1153C32.5406 24.1468 32.5114 24.1894 32.496 24.2376C32.4855 24.2699 32.4814 24.3038 32.484 24.3376C32.4866 24.3714 32.4957 24.4044 32.5109 24.4346C32.5261 24.4648 32.5471 24.4917 32.5726 24.5137C32.5981 24.5358 32.6277 24.5525 32.6596 24.5629L35.4595 25.4849C35.4914 25.4955 35.525 25.4996 35.5585 25.497C35.5919 25.4944 35.6246 25.4852 35.6545 25.4698C35.6844 25.4545 35.711 25.4333 35.7328 25.4075C35.7546 25.3817 35.7711 25.3518 35.7814 25.3195C35.7919 25.2873 35.7959 25.2534 35.7934 25.2196C35.7908 25.1857 35.7817 25.1528 35.7664 25.1226C35.7512 25.0924 35.7303 25.0655 35.7048 25.0435C35.6792 25.0214 35.6497 25.0047 35.6178 24.9943L32.8178 24.0723C32.7853 24.0615 32.751 24.0575 32.7169 24.0604ZM6.21161 26.0663C6.17742 26.067 6.14371 26.0746 6.1125 26.0887L4.98075 26.5979C4.95009 26.6116 4.9224 26.6314 4.89929 26.6559C4.87618 26.6805 4.8581 26.7094 4.84609 26.7411C4.83407 26.7727 4.82836 26.8065 4.82928 26.8404C4.8302 26.8742 4.83773 26.9076 4.85144 26.9385C4.86502 26.9695 4.88452 26.9975 4.90883 27.0209C4.93314 27.0442 4.96177 27.0625 4.99309 27.0747C5.02441 27.0868 5.05779 27.0926 5.09132 27.0917C5.12486 27.0908 5.15788 27.0831 5.18849 27.0693L6.32024 26.5602C6.35091 26.5464 6.37859 26.5267 6.4017 26.5021C6.42481 26.4776 6.44289 26.4486 6.45491 26.417C6.46692 26.3853 6.47263 26.3516 6.47172 26.3177C6.4708 26.2838 6.46327 26.2505 6.44955 26.2195C6.42924 26.1731 6.39581 26.1338 6.35347 26.1066C6.31112 26.0793 6.26175 26.0653 6.21155 26.0663L6.21161 26.0663ZM33.7843 26.0761C33.734 26.075 33.6846 26.0889 33.6422 26.1162C33.5999 26.1434 33.5664 26.1827 33.5461 26.2291C33.5324 26.2601 33.5248 26.2935 33.5239 26.3273C33.523 26.3612 33.5287 26.395 33.5407 26.4266C33.5527 26.4583 33.5707 26.4873 33.5939 26.5118C33.617 26.5364 33.6446 26.5562 33.6753 26.5699L34.8065 27.0799C34.8371 27.0938 34.8702 27.1014 34.9037 27.1024C34.9372 27.1033 34.9706 27.0976 35.002 27.0854C35.0333 27.0733 35.062 27.055 35.0863 27.0317C35.1106 27.0083 35.1302 26.9803 35.1438 26.9493C35.1575 26.9184 35.165 26.885 35.166 26.8511C35.1669 26.8173 35.1612 26.7835 35.1492 26.7519C35.1372 26.7202 35.1191 26.6913 35.096 26.6667C35.0729 26.6421 35.0452 26.6224 35.0146 26.6086L33.8834 26.0986C33.8522 26.0845 33.8184 26.0768 33.7843 26.0761ZM8.41499 26.6352C8.36417 26.6316 8.31342 26.6435 8.26942 26.6694L5.71916 28.1575C5.69007 28.1744 5.66457 28.1969 5.64412 28.2238C5.62367 28.2507 5.60868 28.2814 5.6 28.3141C5.59132 28.3469 5.58913 28.381 5.59355 28.4146C5.59797 28.4483 5.60891 28.4806 5.62575 28.51C5.64246 28.5394 5.66475 28.5651 5.69135 28.5858C5.71794 28.6064 5.7483 28.6216 5.7807 28.6304C5.8131 28.6391 5.84689 28.6414 5.88014 28.6369C5.91339 28.6324 5.94544 28.6214 5.97445 28.6044L8.52471 27.1164C8.5538 27.0995 8.57929 27.077 8.59974 27.0501C8.62018 27.0232 8.63517 26.9925 8.64385 26.9598C8.65253 26.927 8.65473 26.8929 8.65031 26.8592C8.64589 26.8256 8.63496 26.7932 8.61812 26.7639C8.59731 26.7272 8.56789 26.6963 8.53245 26.6739C8.49701 26.6514 8.45665 26.6382 8.41493 26.6352H8.41499ZM31.5851 26.6352C31.5433 26.6381 31.5029 26.6513 31.4674 26.6738C31.432 26.6962 31.4025 26.7272 31.3817 26.7638C31.3649 26.7932 31.354 26.8256 31.3495 26.8592C31.3451 26.8928 31.3473 26.927 31.356 26.9597C31.3647 26.9925 31.3797 27.0232 31.4001 27.0501C31.4206 27.077 31.4461 27.0995 31.4752 27.1164L34.0255 28.6044C34.0545 28.6214 34.0866 28.6324 34.1198 28.6369C34.1531 28.6414 34.1869 28.6391 34.2193 28.6304C34.2517 28.6216 34.2821 28.6064 34.3087 28.5858C34.3353 28.5651 34.3576 28.5394 34.3743 28.51C34.3911 28.4806 34.4021 28.4483 34.4065 28.4146C34.4109 28.381 34.4087 28.3469 34.4 28.3141C34.3914 28.2814 34.3764 28.2507 34.3559 28.2238C34.3355 28.1969 34.31 28.1744 34.2809 28.1575L31.7305 26.6694C31.6865 26.6436 31.6358 26.6317 31.5851 26.6352ZM7.77891 28.819C7.72799 28.8208 7.67878 28.838 7.63759 28.8683L6.63497 29.6035C6.60778 29.6233 6.58473 29.6484 6.56715 29.6773C6.54957 29.7062 6.5378 29.7383 6.53254 29.7717C6.52727 29.8052 6.52859 29.8394 6.53644 29.8724C6.54429 29.9054 6.5585 29.9364 6.57826 29.9638C6.5979 29.9913 6.62272 30.0146 6.65129 30.0324C6.67986 30.0501 6.71162 30.062 6.74475 30.0673C6.77787 30.0726 6.81171 30.0713 6.84432 30.0634C6.87694 30.0555 6.90768 30.0411 6.93479 30.0211L7.93752 29.2859C7.96472 29.2661 7.98776 29.241 8.00534 29.2121C8.02292 29.1833 8.03469 29.1512 8.03996 29.1177C8.04524 29.0842 8.04392 29.05 8.03608 29.0171C8.02825 28.9841 8.01404 28.953 7.99429 28.9256C7.9698 28.8913 7.93734 28.8637 7.89977 28.8451C7.86219 28.8265 7.82067 28.8175 7.77885 28.819H7.77891ZM32.2149 28.8277C32.1732 28.8261 32.1316 28.8351 32.0941 28.8536C32.0565 28.8722 32.024 28.8998 31.9996 28.9341C31.9798 28.9615 31.9656 28.9925 31.9577 29.0255C31.9498 29.0585 31.9485 29.0927 31.9537 29.1262C31.959 29.1597 31.9707 29.1918 31.9883 29.2207C32.0059 29.2496 32.0289 29.2747 32.0561 29.2945L33.0582 30.0304C33.0853 30.0504 33.1161 30.0648 33.1487 30.0727C33.1813 30.0807 33.2151 30.082 33.2483 30.0767C33.2814 30.0714 33.3132 30.0595 33.3417 30.0418C33.3703 30.024 33.3952 30.0007 33.4148 29.9733C33.4346 29.9459 33.4488 29.9148 33.4567 29.8819C33.4645 29.8489 33.4659 29.8148 33.4606 29.7813C33.4554 29.7478 33.4437 29.7157 33.4261 29.6868C33.4086 29.6579 33.3856 29.6328 33.3584 29.613L32.3563 28.8771C32.3151 28.8467 32.2659 28.8295 32.2149 28.8276V28.8277ZM10.0496 28.9167C10.0161 28.9149 9.98257 28.9198 9.95094 28.9311C9.91931 28.9424 9.89022 28.96 9.86535 28.9828L7.67531 30.9724C7.65032 30.995 7.62999 31.0223 7.61549 31.0529C7.601 31.0835 7.59262 31.1167 7.59084 31.1505C7.58906 31.1844 7.59391 31.2182 7.60512 31.2502C7.61632 31.2821 7.63367 31.3115 7.65615 31.3367C7.67852 31.362 7.70561 31.3825 7.73586 31.3972C7.76612 31.4118 7.79893 31.4203 7.83243 31.4221C7.86593 31.4239 7.89945 31.419 7.93107 31.4077C7.96268 31.3963 7.99178 31.3788 8.01668 31.3561L10.2067 29.3665C10.2317 29.3439 10.252 29.3165 10.2665 29.2859C10.281 29.2553 10.2894 29.2222 10.2912 29.1883C10.293 29.1545 10.2881 29.1206 10.2769 29.0886C10.2657 29.0567 10.2484 29.0273 10.2259 29.0021C10.2035 28.9769 10.1764 28.9563 10.1462 28.9417C10.1159 28.927 10.0831 28.9185 10.0496 28.9167ZM29.9442 28.9239C29.8765 28.9275 29.8131 28.9582 29.7678 29.0091C29.7453 29.0343 29.7279 29.0637 29.7167 29.0956C29.7055 29.1276 29.7006 29.1614 29.7023 29.1953C29.7041 29.2292 29.7125 29.2623 29.7269 29.2929C29.7414 29.3235 29.7617 29.3509 29.7867 29.3735L31.9754 31.3647C32.0003 31.3874 32.0294 31.4049 32.061 31.4163C32.0926 31.4276 32.1261 31.4325 32.1596 31.4308C32.1931 31.429 32.226 31.4205 32.2562 31.4059C32.2865 31.3913 32.3136 31.3708 32.336 31.3455C32.3585 31.3204 32.3759 31.291 32.3871 31.2591C32.3983 31.2271 32.4032 31.1932 32.4014 31.1594C32.3997 31.1255 32.3913 31.0924 32.3769 31.0618C32.3624 31.0312 32.3421 31.0038 32.3171 30.9812L30.1283 28.99C30.1035 28.9673 30.0744 28.9497 30.0428 28.9383C30.0112 28.927 29.9777 28.9221 29.9442 28.9239H29.9442ZM12.1274 30.814C12.0856 30.8124 12.0441 30.8213 12.0065 30.8398C11.9689 30.8583 11.9364 30.8859 11.9119 30.9202L10.1795 33.3268C10.1597 33.3542 10.1455 33.3852 10.1376 33.4182C10.1297 33.4511 10.1283 33.4853 10.1335 33.5188C10.1388 33.5523 10.1505 33.5844 10.168 33.6133C10.1855 33.6422 10.2085 33.6673 10.2357 33.6872C10.2628 33.7072 10.2935 33.7216 10.3261 33.7296C10.3587 33.7376 10.3926 33.739 10.4257 33.7337C10.4588 33.7285 10.4906 33.7166 10.5192 33.6989C10.5478 33.6812 10.5727 33.6579 10.5924 33.6305L12.3248 31.2238C12.3446 31.1964 12.3588 31.1654 12.3667 31.1324C12.3746 31.0995 12.376 31.0653 12.3708 31.0318C12.3655 30.9983 12.3538 30.9662 12.3363 30.9373C12.3188 30.9084 12.2958 30.8833 12.2686 30.8634C12.2275 30.833 12.1783 30.8158 12.1274 30.814ZM27.8585 30.8248C27.8076 30.8266 27.7584 30.8437 27.7172 30.874C27.69 30.8938 27.667 30.9189 27.6494 30.9478C27.6318 30.9767 27.6201 31.0087 27.6148 31.0422C27.6095 31.0757 27.6108 31.1099 27.6187 31.1429C27.6265 31.1758 27.6407 31.2069 27.6605 31.2343L29.3896 33.6433C29.4093 33.6708 29.4341 33.6941 29.4626 33.7118C29.4912 33.7296 29.523 33.7415 29.5561 33.7468C29.5892 33.7522 29.6231 33.7508 29.6557 33.7429C29.6883 33.735 29.7191 33.7206 29.7462 33.7007C29.7734 33.6808 29.7965 33.6557 29.814 33.6269C29.8316 33.598 29.8434 33.5659 29.8487 33.5324C29.854 33.4989 29.8526 33.4647 29.8448 33.4317C29.8369 33.3988 29.8227 33.3677 29.803 33.3403L28.0738 30.9313C28.0493 30.897 28.0169 30.8694 27.9793 30.8508C27.9418 30.8322 27.9003 30.8233 27.8585 30.8248H27.8585ZM9.89107 31.1965C9.8234 31.2001 9.75993 31.2308 9.71463 31.2817L8.88579 32.2122C8.86329 32.2373 8.84592 32.2667 8.83469 32.2986C8.82345 32.3306 8.81857 32.3645 8.82033 32.3983C8.82208 32.4322 8.83043 32.4654 8.8449 32.496C8.85937 32.5265 8.87968 32.5539 8.90465 32.5766C8.92953 32.5993 8.95862 32.6169 8.99023 32.6282C9.02184 32.6396 9.05536 32.6445 9.08886 32.6427C9.12236 32.6409 9.15518 32.6325 9.18544 32.6178C9.2157 32.6032 9.2428 32.5826 9.26518 32.5574L10.0941 31.6271C10.1166 31.602 10.134 31.5726 10.1452 31.5406C10.1565 31.5087 10.1613 31.4748 10.1596 31.4409C10.1578 31.4071 10.1495 31.3739 10.135 31.3433C10.1205 31.3127 10.1002 31.2853 10.0752 31.2627C10.0504 31.2399 10.0213 31.2224 9.98968 31.211C9.95808 31.1997 9.92456 31.1947 9.89107 31.1965V31.1965ZM30.1075 31.1977C30.074 31.1958 30.0405 31.2007 30.0089 31.2121C29.9773 31.2235 29.9483 31.241 29.9234 31.2638C29.8985 31.2865 29.8781 31.3138 29.8637 31.3444C29.8492 31.375 29.8408 31.4082 29.8391 31.442C29.8373 31.4759 29.8422 31.5097 29.8534 31.5417C29.8646 31.5736 29.882 31.603 29.9045 31.6282L30.7332 32.5587C30.7556 32.5839 30.7827 32.6045 30.8129 32.6191C30.8432 32.6337 30.876 32.6422 30.9095 32.644C30.943 32.6457 30.9765 32.6408 31.0081 32.6294C31.0397 32.6181 31.0688 32.6005 31.0937 32.5778C31.1187 32.5552 31.139 32.5278 31.1535 32.4972C31.168 32.4666 31.1763 32.4334 31.1781 32.3995C31.1798 32.3657 31.175 32.3318 31.1637 32.2998C31.1525 32.2679 31.1351 32.2385 31.1126 32.2133L30.2839 31.283C30.2615 31.2577 30.2344 31.2371 30.2041 31.2225C30.1738 31.2078 30.141 31.1994 30.1075 31.1976L30.1075 31.1977ZM14.5466 32.2297C14.4964 32.2286 14.447 32.2425 14.4046 32.2697C14.3623 32.297 14.3288 32.3363 14.3086 32.3827L13.1087 35.1006C13.095 35.1316 13.0874 35.1649 13.0865 35.1988C13.0856 35.2327 13.0913 35.2664 13.1033 35.2981C13.1153 35.3298 13.1334 35.3587 13.1565 35.3833C13.1796 35.4079 13.2072 35.4276 13.2379 35.4413C13.2685 35.4552 13.3015 35.4628 13.3351 35.4638C13.3686 35.4647 13.402 35.459 13.4333 35.4469C13.4647 35.4347 13.4933 35.4165 13.5176 35.3931C13.542 35.3698 13.5615 35.3418 13.5751 35.3108L14.7749 32.5929C14.7886 32.562 14.7962 32.5286 14.7971 32.4947C14.798 32.4608 14.7923 32.4271 14.7803 32.3954C14.7683 32.3638 14.7503 32.3348 14.7272 32.3102C14.704 32.2857 14.6764 32.2659 14.6457 32.2522C14.6145 32.2381 14.5808 32.2304 14.5466 32.2297ZM25.4374 32.2372C25.4032 32.2378 25.3695 32.2454 25.3382 32.2595C25.3075 32.2732 25.2798 32.2929 25.2567 32.3175C25.2336 32.342 25.2154 32.371 25.2034 32.4026C25.1914 32.4343 25.1856 32.468 25.1865 32.5019C25.1874 32.5358 25.1949 32.5692 25.2086 32.6001L26.4047 35.3196C26.4183 35.3507 26.4378 35.3786 26.4621 35.402C26.4864 35.4254 26.515 35.4437 26.5463 35.4558C26.5776 35.468 26.611 35.4738 26.6446 35.4729C26.6781 35.472 26.7111 35.4644 26.7418 35.4506C26.7724 35.4369 26.8001 35.4172 26.8233 35.3926C26.8464 35.3681 26.8645 35.3392 26.8765 35.3075C26.8886 35.2759 26.8943 35.2422 26.8934 35.2083C26.8925 35.1744 26.885 35.141 26.8713 35.1101L25.6752 32.3905C25.6549 32.3441 25.6215 32.3048 25.5792 32.2776C25.5369 32.2503 25.4876 32.2362 25.4374 32.2372ZM12.4382 33.07C12.3965 33.0729 12.3561 33.0861 12.3207 33.1086C12.2852 33.131 12.2558 33.1619 12.2351 33.1986L11.6157 34.2828C11.5989 34.3121 11.5879 34.3445 11.5835 34.3781C11.5791 34.4117 11.5813 34.4459 11.59 34.4786C11.5986 34.5114 11.6136 34.5421 11.6341 34.569C11.6545 34.5958 11.68 34.6184 11.7091 34.6353C11.7381 34.6523 11.7702 34.6633 11.8034 34.6678C11.8367 34.6723 11.8705 34.6701 11.9029 34.6613C11.9353 34.6525 11.9657 34.6374 11.9923 34.6167C12.0189 34.596 12.0412 34.5703 12.0579 34.5409L12.6773 33.4566C12.6941 33.4273 12.7051 33.3949 12.7095 33.3613C12.7139 33.3277 12.7117 33.2935 12.703 33.2608C12.6943 33.228 12.6793 33.1973 12.6589 33.1705C12.6384 33.1436 12.6129 33.1211 12.5838 33.1042C12.5397 33.0784 12.489 33.0665 12.4382 33.07ZM27.5619 33.07C27.5111 33.0664 27.4604 33.0783 27.4164 33.1042C27.3873 33.1211 27.3618 33.1437 27.3414 33.1705C27.3209 33.1974 27.3059 33.2281 27.2973 33.2608C27.2886 33.2936 27.2864 33.3278 27.2908 33.3614C27.2952 33.395 27.3062 33.4274 27.323 33.4567L27.9423 34.5409C27.9591 34.5703 27.9814 34.596 28.008 34.6167C28.0345 34.6374 28.0649 34.6525 28.0973 34.6613C28.1297 34.6701 28.1635 34.6723 28.1968 34.6678C28.23 34.6633 28.2621 34.6523 28.2911 34.6353C28.3202 34.6184 28.3457 34.5958 28.3661 34.569C28.3866 34.5421 28.4016 34.5114 28.4103 34.4786C28.4189 34.4459 28.4211 34.4117 28.4167 34.3781C28.4123 34.3445 28.4014 34.3121 28.3845 34.2828L27.7652 33.1987C27.7444 33.162 27.7149 33.1311 27.6794 33.1087C27.644 33.0862 27.6036 33.0729 27.5619 33.07ZM17.2176 33.1089C17.1588 33.1084 17.1016 33.1285 17.0558 33.1657C17.01 33.203 16.9784 33.2551 16.9664 33.3133L16.3544 36.2245C16.3473 36.2577 16.3468 36.2919 16.3529 36.3252C16.359 36.3586 16.3715 36.3904 16.3898 36.4188C16.4081 36.4473 16.4318 36.4718 16.4594 36.4909C16.4871 36.5101 16.5182 36.5236 16.5511 36.5305C16.5839 36.5376 16.6178 36.5382 16.6508 36.532C16.6838 36.5259 16.7152 36.5132 16.7434 36.4947C16.7715 36.4763 16.7958 36.4523 16.8147 36.4244C16.8337 36.3964 16.847 36.3649 16.8539 36.3317L17.4659 33.4206C17.4739 33.3831 17.4735 33.3443 17.4647 33.307C17.4559 33.2697 17.439 33.2349 17.4152 33.205C17.3914 33.1752 17.3613 33.1511 17.3272 33.1345C17.293 33.1179 17.2555 33.1092 17.2176 33.1091V33.1089ZM22.7735 33.1107C22.7356 33.1108 22.6982 33.1195 22.664 33.1361C22.6299 33.1527 22.5998 33.1767 22.576 33.2066C22.5522 33.2364 22.5353 33.2712 22.5265 33.3085C22.5177 33.3458 22.5173 33.3845 22.5252 33.422L23.135 36.3336C23.1419 36.3668 23.1552 36.3983 23.1741 36.4263C23.1931 36.4543 23.2173 36.4782 23.2454 36.4967C23.2736 36.5152 23.305 36.5279 23.338 36.5341C23.371 36.5402 23.4049 36.5398 23.4377 36.5327C23.4705 36.5257 23.5017 36.5123 23.5294 36.4931C23.5571 36.474 23.5807 36.4495 23.599 36.4211C23.6173 36.3927 23.6299 36.3609 23.636 36.3275C23.6421 36.2942 23.6417 36.2599 23.6346 36.2268L23.0246 33.3153C23.0126 33.2572 22.981 33.205 22.9352 33.1677C22.8895 33.1304 22.8323 33.1102 22.7735 33.1106V33.1107ZM20.0001 33.4043C19.9665 33.4043 19.9333 33.4109 19.9023 33.4238C19.8712 33.4368 19.8431 33.4558 19.8194 33.4798C19.7956 33.5037 19.7768 33.5322 19.764 33.5636C19.7512 33.5949 19.7447 33.6285 19.7448 33.6624V36.6385C19.7447 36.6724 19.7512 36.706 19.764 36.7373C19.7768 36.7687 19.7956 36.7971 19.8194 36.8211C19.8431 36.8451 19.8713 36.8641 19.9023 36.8771C19.9333 36.89 19.9666 36.8966 20.0001 36.8965C20.0337 36.8966 20.0669 36.89 20.0979 36.877C20.1289 36.8641 20.1571 36.8451 20.1808 36.8211C20.2045 36.7971 20.2233 36.7686 20.2361 36.7373C20.2489 36.706 20.2554 36.6724 20.2553 36.6385V33.6625C20.2554 33.6286 20.2489 33.595 20.2361 33.5636C20.2233 33.5323 20.2045 33.5038 20.1808 33.4798C20.157 33.4558 20.1289 33.4368 20.0978 33.4239C20.0668 33.411 20.0336 33.4043 20.0001 33.4044V33.4043ZM15.3136 34.3661C15.2636 34.3704 15.2159 34.3895 15.1766 34.4211C15.1373 34.4527 15.1081 34.4953 15.0926 34.5436L14.7097 35.7341C14.6993 35.7664 14.6952 35.8004 14.6978 35.8342C14.7004 35.868 14.7096 35.9009 14.7248 35.9311C14.7401 35.9614 14.761 35.9882 14.7866 36.0102C14.8121 36.0322 14.8417 36.0489 14.8736 36.0593C14.9055 36.0699 14.9391 36.0739 14.9726 36.0713C15.006 36.0687 15.0386 36.0594 15.0685 36.044C15.0984 36.0286 15.125 36.0074 15.1468 35.9816C15.1685 35.9558 15.185 35.9259 15.1953 35.8936L15.5782 34.7031C15.5887 34.6709 15.5927 34.6369 15.5901 34.6031C15.5875 34.5693 15.5784 34.5364 15.5632 34.5062C15.5479 34.476 15.527 34.4491 15.5014 34.4271C15.4759 34.4051 15.4463 34.3884 15.4144 34.378C15.3819 34.3673 15.3477 34.3632 15.3136 34.3661ZM24.6846 34.3667C24.6505 34.3636 24.6162 34.3676 24.5837 34.3785C24.5518 34.3889 24.5222 34.4056 24.4967 34.4276C24.4712 34.4496 24.4502 34.4764 24.4349 34.5067C24.4197 34.5369 24.4105 34.5698 24.4079 34.6036C24.4053 34.6374 24.4094 34.6714 24.4198 34.7037L24.8025 35.8942C24.8128 35.9265 24.8293 35.9564 24.8511 35.9822C24.8729 36.008 24.8995 36.0292 24.9294 36.0446C24.9593 36.06 24.9919 36.0693 25.0253 36.0719C25.0588 36.0745 25.0924 36.0704 25.1243 36.0599C25.1562 36.0495 25.1858 36.0328 25.2114 36.0108C25.2369 35.9888 25.2579 35.962 25.2731 35.9318C25.2884 35.9016 25.2975 35.8686 25.3002 35.8348C25.3028 35.801 25.2987 35.767 25.2883 35.7348L24.9054 34.5442C24.89 34.4959 24.8608 34.4533 24.8215 34.4217C24.7823 34.3902 24.7346 34.371 24.6846 34.3667H24.6846ZM18.3975 35.0298C18.339 35.0355 18.2842 35.0615 18.2425 35.1034C18.2008 35.1453 18.1747 35.2005 18.1687 35.2596L18.0392 36.5047C18.0356 36.5384 18.0386 36.5725 18.0481 36.605C18.0576 36.6375 18.0734 36.6678 18.0945 36.6942C18.1156 36.7205 18.1417 36.7424 18.1711 36.7585C18.2006 36.7747 18.233 36.7848 18.2664 36.7882C18.2997 36.7918 18.3335 36.7888 18.3657 36.7792C18.3978 36.7696 18.4278 36.7537 18.4539 36.7323C18.48 36.711 18.5016 36.6847 18.5176 36.6549C18.5336 36.625 18.5436 36.5923 18.547 36.5586L18.6765 35.3136C18.6801 35.2799 18.6771 35.2458 18.6676 35.2133C18.6581 35.1808 18.6423 35.1505 18.6212 35.1241C18.6001 35.0978 18.5741 35.0759 18.5446 35.0597C18.5151 35.0436 18.4827 35.0335 18.4493 35.03C18.4321 35.0282 18.4147 35.0281 18.3975 35.0298ZM21.5924 35.031C21.5751 35.0291 21.5577 35.0292 21.5405 35.0312C21.5071 35.0347 21.4747 35.0448 21.4452 35.0609C21.4157 35.077 21.3896 35.0988 21.3685 35.1252C21.3474 35.1515 21.3316 35.1818 21.3221 35.2143C21.3126 35.2468 21.3095 35.2809 21.313 35.3146L21.4417 36.5598C21.4451 36.5935 21.4551 36.6263 21.4711 36.6561C21.487 36.6859 21.5086 36.7122 21.5347 36.7336C21.5608 36.7549 21.5907 36.7709 21.6229 36.7805C21.6551 36.7901 21.6888 36.7932 21.7221 36.7896C21.7555 36.7861 21.7879 36.7761 21.8174 36.7599C21.8469 36.7438 21.873 36.7219 21.8941 36.6956C21.9153 36.6693 21.9311 36.639 21.9406 36.6065C21.9501 36.5739 21.9532 36.5398 21.9496 36.5061L21.821 35.261C21.815 35.2019 21.789 35.1467 21.7473 35.1048C21.7056 35.0628 21.6509 35.0368 21.5923 35.031H21.5924Z" fill="#F4F2F3"/>
<g opacity="0.409" filter="url(#filter0_f_436_3967)">
<path d="M31.9658 9.80127L17.9976 18.0029L9.16595 32.054L22.086 22.3827L31.9658 9.80127Z" fill="black"/>
</g>
<path d="M22.0019 22.2406L17.9981 18.0033L32.2009 8.34766L22.0019 22.2406Z" fill="#FF5150"/>
<path d="M22.002 22.2407L17.9982 18.0034L7.79919 31.8964L22.002 22.2407Z" fill="#F1F1F1"/>
<path opacity="0.243" d="M7.79898 31.8962L22.0018 22.2406L32.2009 8.34766L7.79898 31.8962Z" fill="black"/>
<defs>
<filter id="filter0_f_436_3967" x="3.70694" y="4.34226" width="33.7179" height="33.171" filterUnits="userSpaceOnUse" color-interpolation-filters="sRGB">
<feFlood flood-opacity="0" result="BackgroundImageFix"/>
<feBlend mode="normal" in="SourceGraphic" in2="BackgroundImageFix" result="shape"/>
<feGaussianBlur stdDeviation="2.72951" result="effect1_foregroundBlur_436_3967"/>
</filter>
<linearGradient id="paint0_linear_436_3967" x1="19.9993" y1="39.3232" x2="19.9993" y2="0.920309" gradientUnits="userSpaceOnUse">
<stop stop-color="#BDBDBD"/>
<stop offset="1" stop-color="white"/>
</linearGradient>
<radialGradient id="paint1_radial_436_3967" cx="0" cy="0" r="1" gradientUnits="userSpaceOnUse" gradientTransform="translate(20.0789 17.5413) scale(19 19.2015)">
<stop stop-color="#06C2E7"/>
<stop offset="0.25" stop-color="#0DB8EC"/>
<stop offset="0.5" stop-color="#12AEF1"/>
<stop offset="0.75" stop-color="#1F86F9"/>
<stop offset="1" stop-color="#107DDD"/>
</radialGradient>
</defs>
</svg>
