<svg width="38" height="39" viewBox="0 0 38 39" fill="none" xmlns="http://www.w3.org/2000/svg">
<g clip-path="url(#clip0_436_3986)">
<path d="M19 3.45779C24.0766 3.45779 24.6777 3.48029 26.6742 3.5703C28.5297 3.6528 29.5316 3.96783 30.1996 4.23035C31.0828 4.57538 31.7211 4.99541 32.3816 5.66297C33.0496 6.33803 33.4578 6.97558 33.7992 7.86815C34.059 8.54321 34.3707 9.56329 34.4523 11.4309C34.5414 13.4561 34.5637 14.0637 34.5637 19.1866C34.5637 24.317 34.5414 24.9246 34.4523 26.9422C34.3707 28.8174 34.059 29.83 33.7992 30.505C33.4578 31.3976 33.0422 32.0427 32.3816 32.7102C31.7137 33.3853 31.0828 33.7978 30.1996 34.1428C29.5316 34.4054 28.5223 34.7204 26.6742 34.8029C24.6703 34.8929 24.0691 34.9154 19 34.9154C13.9234 34.9154 13.3223 34.8929 11.3258 34.8029C9.47031 34.7204 8.46836 34.4054 7.80039 34.1428C6.91719 33.7978 6.27891 33.3778 5.61836 32.7102C4.95039 32.0352 4.54219 31.3976 4.20078 30.505C3.94102 29.83 3.6293 28.8099 3.54766 26.9422C3.45859 24.9171 3.43633 24.3095 3.43633 19.1866C3.43633 14.0562 3.45859 13.4486 3.54766 11.4309C3.6293 9.55579 3.94102 8.54321 4.20078 7.86815C4.54219 6.97558 4.95781 6.33052 5.61836 5.66297C6.28633 4.98791 6.91719 4.57538 7.80039 4.23035C8.46836 3.96783 9.47774 3.6528 11.3258 3.5703C13.3223 3.48029 13.9234 3.45779 19 3.45779ZM19 0C13.8418 0 13.1961 0.0225019 11.1699 0.112509C9.15117 0.202517 7.76328 0.532544 6.56094 1.00508C5.30664 1.50012 4.24531 2.15268 3.19141 3.22527C2.13008 4.29036 1.48438 5.36295 0.994531 6.62305C0.526953 7.84565 0.200391 9.24076 0.111328 11.2809C0.0222656 13.3361 0 13.9887 0 19.2016C0 24.4145 0.0222656 25.0671 0.111328 27.1147C0.200391 29.1549 0.526953 30.5575 0.994531 31.7726C1.48438 33.0402 2.13008 34.1128 3.19141 35.1779C4.24531 36.243 5.30664 36.9031 6.55352 37.3906C7.76328 37.8631 9.14375 38.1932 11.1625 38.2832C13.1887 38.3732 13.8344 38.3957 18.9926 38.3957C24.1508 38.3957 24.7965 38.3732 26.8227 38.2832C28.8414 38.1932 30.2293 37.8631 31.4316 37.3906C32.6785 36.9031 33.7398 36.243 34.7938 35.1779C35.8477 34.1128 36.5008 33.0402 36.9832 31.7801C37.4508 30.5575 37.7773 29.1624 37.8664 27.1222C37.9555 25.0746 37.9777 24.422 37.9777 19.2091C37.9777 13.9962 37.9555 13.3436 37.8664 11.2959C37.7773 9.25577 37.4508 7.85315 36.9832 6.63805C36.5156 5.36294 35.8699 4.29036 34.8086 3.22527C33.7547 2.16018 32.6934 1.50012 31.4465 1.01258C30.2367 0.540045 28.8563 0.210017 26.8375 0.12001C24.8039 0.0225019 24.1582 0 19 0Z" fill="#000100"/>
<path d="M19 9.33838C13.6117 9.33838 9.24023 13.7562 9.24023 19.2017C9.24023 24.6471 13.6117 29.065 19 29.065C24.3883 29.065 28.7598 24.6471 28.7598 19.2017C28.7598 13.7562 24.3883 9.33838 19 9.33838ZM19 25.5997C15.5043 25.5997 12.6691 22.7345 12.6691 19.2017C12.6691 15.6689 15.5043 12.8037 19 12.8037C22.4957 12.8037 25.3309 15.6689 25.3309 19.2017C25.3309 22.7345 22.4957 25.5997 19 25.5997Z" fill="#000100"/>
<path d="M31.4242 8.9482C31.4242 10.2233 30.4 11.2509 29.1457 11.2509C27.884 11.2509 26.8672 10.2158 26.8672 8.9482C26.8672 7.6731 27.8914 6.64551 29.1457 6.64551C30.4 6.64551 31.4242 7.6806 31.4242 8.9482Z" fill="#000100"/>
</g>
<defs>
<clipPath id="clip0_436_3986">
<rect width="38" height="38.4032" fill="white"/>
</clipPath>
</defs>
</svg>
