<svg width="27" height="25" viewBox="0 0 27 25" fill="none" xmlns="http://www.w3.org/2000/svg">
<g clip-path="url(#clip0_436_3861)">
<rect width="26.3" height="25" fill="white"/>
<path d="M23.8789 9.41406H23.3205C23.1391 8.87451 22.9103 8.35039 22.6361 7.84683L23.0316 7.47095C23.9903 6.56055 23.9646 5.10156 23.0319 4.21582L21.8653 3.10693C20.934 2.22056 19.3989 2.19487 18.4409 3.10659L18.0451 3.48276C17.5154 3.22222 16.964 3.00464 16.3964 2.83223V2.30142C16.3964 1.03242 15.3103 0 13.9753 0H12.3247C10.9897 0 9.90359 1.03242 9.90359 2.30142V2.83223C9.33604 3.00459 8.78461 3.22217 8.25486 3.48276L7.85949 3.10693C6.90339 2.19702 5.36828 2.21836 4.43515 3.10664L3.26844 4.21558C2.33603 5.10093 2.30906 6.56001 3.26813 7.4707L3.66387 7.84687C3.38972 8.35044 3.16088 8.87451 2.9795 9.41411H2.42114C1.08616 9.41406 0 10.4465 0 11.7155V13.2845C0 14.5535 1.08616 15.5859 2.42114 15.5859H2.9795C3.16088 16.1255 3.38972 16.6496 3.66387 17.1532L3.26844 17.5291C2.30967 18.4395 2.33536 19.8984 3.26813 20.7842L4.43473 21.8931C5.36597 22.7794 6.90113 22.8051 7.85913 21.8934L8.25486 21.5172C8.78461 21.7778 9.33604 21.9954 9.90359 22.1678V22.6986C9.90359 23.9676 10.9898 25 12.3247 25H13.9753C15.3103 25 16.3965 23.9676 16.3965 22.6986V22.1678C16.964 21.9954 17.5154 21.7778 18.0452 21.5172L18.4406 21.8931C19.3967 22.803 20.9317 22.7816 21.8649 21.8934L23.0316 20.7844C23.964 19.899 23.991 18.4399 23.0319 17.5292L22.6362 17.1531C22.9103 16.6495 23.1392 16.1254 23.3205 15.5858H23.8789C25.2139 15.5858 26.3 14.5534 26.3 13.2844V11.7154C26.3 10.4465 25.2138 9.41406 23.8789 9.41406ZM13.15 17.9395C9.99467 17.9395 7.4277 15.4993 7.4277 12.5C7.4277 9.50068 9.99467 7.06055 13.15 7.06055C16.3053 7.06055 18.8723 9.50068 18.8723 12.5C18.8723 15.4993 16.3053 17.9395 13.15 17.9395Z" fill="#2D60FF"/>
</g>
<defs>
<clipPath id="clip0_436_3861">
<rect width="26.3" height="25" fill="white"/>
</clipPath>
</defs>
</svg>
