<svg width="26" height="25" viewBox="0 0 26 25" fill="none" xmlns="http://www.w3.org/2000/svg">
<mask id="mask0_460_735" style="mask-type:alpha" maskUnits="userSpaceOnUse" x="0" y="0" width="26" height="25">
<rect width="26" height="25" fill="white"/>
</mask>
<g mask="url(#mask0_460_735)">
<path d="M2.08 12.6687C2.33162 12.6687 2.535 12.4703 2.535 12.2249C2.535 9.53324 4.78044 7.34306 7.54002 7.34306H17.7697C18.151 7.34306 18.4601 7.64455 18.4601 8.01646V9.9989C18.4601 10.5493 19.1002 10.8672 19.5565 10.5435L23.9259 7.44385C24.305 7.17492 24.305 6.62358 23.9259 6.35465L19.5565 3.255C19.1002 2.93129 18.4601 3.24923 18.4601 3.7996V5.78204C18.4601 6.15395 18.151 6.45544 17.7697 6.45544H7.54002C4.27857 6.45544 1.625 9.04372 1.625 12.2249C1.625 12.4703 1.82839 12.6687 2.08 12.6687Z" fill="#B1B1B1"/>
<path d="M23.92 13.1125C23.6684 13.1125 23.465 13.3109 23.465 13.5563C23.465 16.248 21.2196 18.4382 18.46 18.4382H7.53993V15.7824C7.53993 15.232 6.89979 14.914 6.44347 15.2378L2.07409 18.3374C1.69501 18.6063 1.69501 19.1577 2.07409 19.4266L6.44347 22.5262C6.89979 22.85 7.53993 22.532 7.53993 21.9816V19.3258H18.46C21.7214 19.3258 24.375 16.7375 24.375 13.5563C24.375 13.3109 24.1716 13.1125 23.92 13.1125Z" fill="#B1B1B1"/>
</g>
</svg>
