<svg width="38" height="39" viewBox="0 0 38 39" fill="none" xmlns="http://www.w3.org/2000/svg">
<path d="M38 18.625C38 29.3269 29.7031 37.2501 19 37.2501C17.078 37.2501 15.2334 36.9935 13.4999 36.512C13.1632 36.4175 12.8052 36.4444 12.4853 36.5865L8.71416 38.2693C7.72768 38.7093 6.61428 38.0004 6.5816 36.9114L6.47824 33.4951C6.46532 33.0742 6.27836 32.681 5.96752 32.4006C2.27012 29.0597 0 24.2233 0 18.625C0 7.92313 8.29692 0 19 0C29.7031 0 38 7.92313 38 18.625Z" fill="#0866FF"/>
<path d="M24.1587 23.9866L30.7736 13.655C31.4386 12.6166 30.2067 11.4078 29.1989 12.1105L22.2936 16.9238C22.0611 17.0858 21.754 17.0904 21.5169 16.9353L15.3876 12.9277C14.8685 12.5882 14.1762 12.7388 13.841 13.2626L7.2253 23.5941C6.56031 24.6325 7.79225 25.8414 8.8 25.1387L15.7068 20.3246C15.9394 20.1626 16.2464 20.158 16.4835 20.3131L22.6113 24.3199C23.1304 24.6594 23.8227 24.5089 24.1587 23.9851V23.9866Z" fill="white"/>
</svg>
