<svg width="38" height="40" viewBox="0 0 38 40" fill="none" xmlns="http://www.w3.org/2000/svg">
<path d="M36.6244 13.793C35.7978 11.847 34.1211 9.746 32.8081 9.08183C33.7446 10.8564 34.3945 12.7621 34.7347 14.7313L34.7381 14.7626C32.5872 9.51596 28.9398 7.40052 25.9609 2.79408C25.8102 2.56116 25.6596 2.32777 25.5128 2.08141C25.4289 1.9407 25.3616 1.81391 25.3032 1.69722C25.1797 1.46313 25.0844 1.21573 25.0195 0.960052C25.0196 0.948253 25.0152 0.936837 25.0073 0.927979C24.9993 0.919122 24.9883 0.913444 24.9763 0.912028C24.9646 0.908881 24.9522 0.908881 24.9405 0.912028C24.938 0.912028 24.9341 0.91635 24.9311 0.917311C24.9282 0.918271 24.9218 0.922593 24.9174 0.924514L24.9248 0.912028C20.1465 3.64938 18.5252 8.71685 18.376 11.2515C16.4678 11.3799 14.6434 12.0679 13.1407 13.2258C12.9839 13.0959 12.8201 12.9744 12.6499 12.8618C12.2164 11.3773 12.1979 9.8063 12.5964 8.31249C10.8416 9.14422 9.28238 10.3233 8.01735 11.775H8.00852C7.25459 10.84 7.3076 7.75685 7.35079 7.11285C7.12776 7.20056 6.91485 7.31115 6.71565 7.44278C6.0501 7.90753 5.4279 8.42903 4.85635 9.00115C4.20506 9.64722 3.61021 10.3455 3.07805 11.0887V11.0916V11.0883C1.855 12.7847 0.987517 14.7014 0.525688 16.7277L0.500164 16.8506C0.464333 17.0144 0.335243 17.8346 0.313155 18.0128C0.313155 18.0267 0.31021 18.0397 0.308737 18.0536C0.142214 18.9005 0.0390283 19.758 0 20.6195L0 20.7156C0.00417071 25.3759 1.79501 29.8652 5.01858 33.2962C8.24216 36.7272 12.6639 38.8502 17.41 39.2457C22.156 39.6412 26.881 38.2803 30.6512 35.4321C34.4214 32.5839 36.9624 28.4556 37.772 23.8631C37.8039 23.6229 37.8299 23.3852 37.8584 23.1427C38.2502 19.9742 37.826 16.7601 36.6244 13.793ZM14.6986 28.3624C14.7875 28.4042 14.8709 28.4493 14.9622 28.4892L14.9755 28.4974C14.8832 28.4541 14.7909 28.4092 14.6986 28.3624ZM34.7396 14.7669V14.7491L34.743 14.7688L34.7396 14.7669Z" fill="url(#paint0_linear_436_3954)"/>
<path d="M36.6244 13.7932C35.7978 11.8472 34.1211 9.7462 32.8081 9.08203C33.7446 10.8566 34.3945 12.7623 34.7347 14.7315V14.7493L34.7381 14.769C36.2044 18.8743 35.9923 23.3752 34.1461 27.3311C31.9658 31.9082 26.6884 36.5996 18.4275 36.3715C9.50165 36.1242 1.64087 29.6439 0.171303 21.1562C-0.0962043 19.8177 0.171303 19.1392 0.305792 18.0514C0.12233 18.8963 0.0199547 19.7562 0 20.6197L0 20.7158C0.00417071 25.3761 1.79501 29.8654 5.01858 33.2964C8.24216 36.7274 12.6639 38.8504 17.41 39.2459C22.156 39.6414 26.881 38.2805 30.6512 35.4323C34.4214 32.5841 36.9624 28.4558 37.772 23.8633C37.8039 23.6231 37.8299 23.3854 37.8584 23.1429C38.2502 19.9744 37.826 16.7603 36.6244 13.7932Z" fill="url(#paint1_radial_436_3954)"/>
<path d="M36.6244 13.7932C35.7978 11.8472 34.1211 9.7462 32.8081 9.08203C33.7446 10.8566 34.3945 12.7623 34.7347 14.7315V14.7493L34.7381 14.769C36.2044 18.8743 35.9923 23.3752 34.1461 27.3311C31.9658 31.9082 26.6884 36.5996 18.4275 36.3715C9.50165 36.1242 1.64087 29.6439 0.171303 21.1562C-0.0962043 19.8177 0.171303 19.1392 0.305792 18.0514C0.12233 18.8963 0.0199547 19.7562 0 20.6197L0 20.7158C0.00417071 25.3761 1.79501 29.8654 5.01858 33.2964C8.24216 36.7274 12.6639 38.8504 17.41 39.2459C22.156 39.6414 26.881 38.2805 30.6512 35.4323C34.4214 32.5841 36.9624 28.4558 37.772 23.8633C37.8039 23.6231 37.8299 23.3854 37.8584 23.1429C38.2502 19.9744 37.826 16.7603 36.6244 13.7932Z" fill="url(#paint2_radial_436_3954)"/>
<path d="M27.3799 15.981C27.4212 16.0093 27.4595 16.0377 27.4982 16.066C27.0204 15.237 26.4255 14.4779 25.7312 13.8113C19.8186 8.02539 24.1816 1.26604 24.9174 0.922675L24.9248 0.912109C20.1465 3.64946 18.5252 8.71693 18.376 11.2516C18.5979 11.2367 18.8178 11.2185 19.0445 11.2185C20.74 11.2215 22.4044 11.6638 23.8684 12.5003C25.3325 13.3368 26.5441 14.5378 27.3799 15.981Z" fill="url(#paint3_radial_436_3954)"/>
<path d="M19.0569 17.1362C19.0255 17.5992 17.3537 19.196 16.7691 19.196C11.3596 19.196 10.4815 22.3977 10.4815 22.3977C10.721 25.0938 12.6412 27.3144 14.9623 28.489C15.0684 28.5428 15.1759 28.5913 15.2833 28.6389C15.4695 28.7196 15.6557 28.7942 15.8419 28.8627C16.6385 29.1385 17.4729 29.296 18.3172 29.3299C27.7987 29.765 29.6355 18.2365 22.7932 14.8911C24.4073 14.6856 26.042 15.0739 27.3801 15.9808C26.5442 14.5375 25.3326 13.3366 23.8686 12.5001C22.4045 11.6636 20.7401 11.2213 19.0446 11.2183C18.8189 11.2183 18.598 11.2365 18.3761 11.2514C16.4679 11.3797 14.6435 12.0677 13.1408 13.2257C13.4309 13.4658 13.7583 13.7866 14.4479 14.4517C15.7388 15.696 19.0496 16.985 19.0569 17.1362Z" fill="url(#paint4_radial_436_3954)"/>
<path d="M19.0569 17.1362C19.0255 17.5992 17.3537 19.196 16.7691 19.196C11.3596 19.196 10.4815 22.3977 10.4815 22.3977C10.721 25.0938 12.6412 27.3144 14.9623 28.489C15.0684 28.5428 15.1759 28.5913 15.2833 28.6389C15.4695 28.7196 15.6557 28.7942 15.8419 28.8627C16.6385 29.1385 17.4729 29.296 18.3172 29.3299C27.7987 29.765 29.6355 18.2365 22.7932 14.8911C24.4073 14.6856 26.042 15.0739 27.3801 15.9808C26.5442 14.5375 25.3326 13.3366 23.8686 12.5001C22.4045 11.6636 20.7401 11.2213 19.0446 11.2183C18.8189 11.2183 18.598 11.2365 18.3761 11.2514C16.4679 11.3797 14.6435 12.0677 13.1408 13.2257C13.4309 13.4658 13.7583 13.7866 14.4479 14.4517C15.7388 15.696 19.0496 16.985 19.0569 17.1362Z" fill="url(#paint5_radial_436_3954)"/>
<path d="M12.2538 12.6068C12.408 12.7028 12.5351 12.7864 12.6465 12.8618C12.213 11.3773 12.1946 9.80631 12.593 8.3125C10.8382 9.14423 9.279 10.3233 8.01398 11.775C8.10675 11.7726 10.8662 11.7241 12.2538 12.6068Z" fill="url(#paint6_radial_436_3954)"/>
<path d="M0.173799 21.156C1.6419 29.6437 9.50414 36.124 18.43 36.3713C26.6908 36.5999 31.9683 31.908 34.1486 27.3309C35.9948 23.375 36.2069 18.8741 34.7406 14.7688V14.7511C34.7406 14.7371 34.7376 14.729 34.7406 14.7333L34.744 14.7645C35.4189 19.0756 33.1778 23.2522 29.6742 26.0765L29.6634 26.1005C22.8368 31.5402 16.3037 29.3824 14.9814 28.5017C14.8891 28.4585 14.7969 28.4135 14.7046 28.3667C10.7244 26.5053 9.08006 22.9574 9.43248 19.9146C8.48767 19.9282 7.55909 19.6735 6.75925 19.1812C5.95941 18.689 5.32264 17.9803 4.9261 17.1412C5.9709 16.5149 7.16221 16.1609 8.38651 16.1128C9.61081 16.0647 10.8273 16.3242 11.92 16.8665C14.1729 17.8671 16.7365 17.9657 19.0627 17.1412C19.0554 16.9899 15.7447 15.7005 14.4538 14.4567C13.7641 13.7915 13.4367 13.4712 13.1467 13.2306C12.9899 13.1007 12.826 12.9792 12.6558 12.8666C12.5429 12.7912 12.4158 12.7096 12.2631 12.6116C10.8755 11.7289 8.11605 11.7774 8.02476 11.7798H8.01592C7.26199 10.8448 7.31501 7.76167 7.3582 7.11768C7.13516 7.20538 6.92226 7.31597 6.72305 7.4476C6.0575 7.91235 5.43531 8.43385 4.86376 9.00597C4.21013 9.65023 3.61282 10.3469 3.07809 11.0888V11.0916V11.0883C1.85504 12.7847 0.987558 14.7014 0.52573 16.7277C0.516404 16.7656 -0.159481 19.6567 0.173799 21.156Z" fill="url(#paint7_radial_436_3954)"/>
<path d="M25.7322 13.8112C26.4267 14.4786 27.0216 15.2384 27.4993 16.0683C27.6038 16.1456 27.7015 16.2225 27.7844 16.2969C32.0974 20.1868 29.8376 25.6856 29.6693 26.077C33.1729 23.2527 35.4121 19.076 34.7391 14.765C32.5873 9.51596 28.9399 7.40052 25.961 2.79408C25.8103 2.56116 25.6596 2.32777 25.5128 2.08141C25.4289 1.9407 25.3617 1.81391 25.3033 1.69722C25.1797 1.46313 25.0845 1.21573 25.0195 0.960052C25.0196 0.948253 25.0153 0.936837 25.0073 0.927979C24.9993 0.919122 24.9883 0.913444 24.9764 0.912028C24.9646 0.908881 24.9523 0.908881 24.9405 0.912028C24.9381 0.912028 24.9341 0.91635 24.9312 0.917311C24.9283 0.918271 24.9219 0.922593 24.9175 0.924514C24.1817 1.26596 19.8186 8.02531 25.7322 13.8112Z" fill="url(#paint8_radial_436_3954)"/>
<path d="M27.7815 16.2949C27.6985 16.2204 27.6008 16.1436 27.4963 16.0663C27.4575 16.0379 27.4192 16.0096 27.378 15.9813C26.0399 15.0745 24.4052 14.6861 22.7911 14.8916C29.6334 18.2389 27.7977 29.7655 18.3151 29.3304C17.4708 29.2965 16.6365 29.139 15.8398 28.8632C15.6537 28.795 15.4675 28.7204 15.2813 28.6394C15.1738 28.5914 15.0663 28.5433 14.9603 28.4895L14.9735 28.4977C16.2958 29.3809 22.8269 31.5386 29.6555 26.0965L29.6663 26.0725C29.8366 25.6835 32.0964 20.1834 27.7815 16.2949Z" fill="url(#paint9_radial_436_3954)"/>
<path d="M10.4814 22.3981C10.4814 22.3981 11.3595 19.1963 16.769 19.1963C17.3536 19.1963 19.0269 17.5995 19.0568 17.1366C16.7306 17.9611 14.167 17.8625 11.9141 16.8619C10.8214 16.3196 9.60488 16.0601 8.38059 16.1082C7.15629 16.1563 5.96497 16.5103 4.92017 17.1366C5.31671 17.9757 5.95348 18.6844 6.75332 19.1766C7.55316 19.6689 8.48174 19.9236 9.42655 19.9099C9.07413 22.9532 10.7184 26.5012 14.6986 28.3621C14.7875 28.4039 14.8709 28.449 14.9622 28.4889C12.6391 27.3147 10.7209 25.0941 10.4814 22.3981Z" fill="url(#paint10_radial_436_3954)"/>
<path d="M36.6244 13.793C35.7978 11.847 34.1211 9.746 32.8081 9.08183C33.7446 10.8564 34.3945 12.7621 34.7347 14.7313L34.7381 14.7626C32.5872 9.51596 28.9398 7.40052 25.9609 2.79408C25.8102 2.56116 25.6596 2.32777 25.5128 2.08141C25.4289 1.9407 25.3616 1.81391 25.3032 1.69722C25.1797 1.46313 25.0844 1.21573 25.0195 0.960052C25.0196 0.948253 25.0152 0.936837 25.0073 0.927979C24.9993 0.919122 24.9883 0.913444 24.9763 0.912028C24.9646 0.908881 24.9522 0.908881 24.9405 0.912028C24.938 0.912028 24.9341 0.91635 24.9311 0.917311C24.9282 0.918271 24.9218 0.922593 24.9174 0.924514L24.9248 0.912028C20.1465 3.64938 18.5252 8.71685 18.376 11.2515C18.5979 11.2367 18.8178 11.2184 19.0445 11.2184C20.74 11.2214 22.4044 11.6637 23.8684 12.5002C25.3325 13.3367 26.5441 14.5377 27.3799 15.9809C26.0418 15.0741 24.4072 14.6858 22.7931 14.8913C29.6353 18.2385 27.7996 29.7652 18.3171 29.3301C17.4728 29.2962 16.6384 29.1387 15.8418 28.8628C15.6556 28.7946 15.4694 28.72 15.2832 28.639C15.1757 28.591 15.0682 28.543 14.9622 28.4892L14.9755 28.4974C14.8832 28.4541 14.7909 28.4092 14.6986 28.3624C14.7875 28.4042 14.8709 28.4493 14.9622 28.4892C12.6391 27.3145 10.7209 25.0939 10.4814 22.3979C10.4814 22.3979 11.3595 19.1961 16.769 19.1961C17.3536 19.1961 19.0269 17.5993 19.0568 17.1364C19.0494 16.9851 15.7387 15.6957 14.4478 14.4518C13.7582 13.7867 13.4308 13.4664 13.1407 13.2258C12.9839 13.0959 12.8201 12.9744 12.6499 12.8618C12.2164 11.3773 12.1979 9.8063 12.5964 8.31249C10.8416 9.14422 9.28238 10.3233 8.01735 11.775H8.00852C7.25459 10.84 7.3076 7.75685 7.35079 7.11285C7.12776 7.20056 6.91485 7.31115 6.71565 7.44278C6.0501 7.90753 5.4279 8.42903 4.85635 9.00115C4.20506 9.64722 3.61021 10.3455 3.07805 11.0887V11.0916V11.0883C1.855 12.7847 0.987517 14.7014 0.525688 16.7277L0.500164 16.8506C0.464333 17.0144 0.303829 17.8462 0.28076 18.0248C0.28076 18.0109 0.28076 18.0383 0.28076 18.0248C0.133955 18.8834 0.0401983 19.7499 0 20.6195L0 20.7156C0.00417071 25.3759 1.79501 29.8652 5.01858 33.2962C8.24216 36.7272 12.6639 38.8502 17.41 39.2457C22.156 39.6412 26.881 38.2803 30.6512 35.4321C34.4214 32.5839 36.9624 28.4556 37.772 23.8631C37.8039 23.6229 37.8299 23.3852 37.8584 23.1427C38.2502 19.9742 37.826 16.7601 36.6244 13.793ZM34.7371 14.7491L34.7406 14.7688L34.7371 14.7491Z" fill="url(#paint11_linear_436_3954)"/>
<defs>
<linearGradient id="paint0_linear_436_3954" x1="34.1064" y1="6.85929" x2="3.19158" y2="37.3446" gradientUnits="userSpaceOnUse">
<stop offset="0.048" stop-color="#FFF44F"/>
<stop offset="0.111" stop-color="#FFE847"/>
<stop offset="0.225" stop-color="#FFC830"/>
<stop offset="0.368" stop-color="#FF980E"/>
<stop offset="0.401" stop-color="#FF8B16"/>
<stop offset="0.462" stop-color="#FF672A"/>
<stop offset="0.534" stop-color="#FF3647"/>
<stop offset="0.705" stop-color="#E31587"/>
</linearGradient>
<radialGradient id="paint1_radial_436_3954" cx="0" cy="0" r="1" gradientUnits="userSpaceOnUse" gradientTransform="translate(32.6471 5.17184) scale(39.6583 38.8018)">
<stop offset="0.129" stop-color="#FFBD4F"/>
<stop offset="0.186" stop-color="#FFAC31"/>
<stop offset="0.247" stop-color="#FF9D17"/>
<stop offset="0.283" stop-color="#FF980E"/>
<stop offset="0.403" stop-color="#FF563B"/>
<stop offset="0.467" stop-color="#FF3750"/>
<stop offset="0.71" stop-color="#F5156C"/>
<stop offset="0.782" stop-color="#EB0878"/>
<stop offset="0.86" stop-color="#E50080"/>
</radialGradient>
<radialGradient id="paint2_radial_436_3954" cx="0" cy="0" r="1" gradientUnits="userSpaceOnUse" gradientTransform="translate(18.1557 21.0351) scale(39.6583 38.8018)">
<stop offset="0.3" stop-color="#960E18"/>
<stop offset="0.351" stop-color="#B11927" stop-opacity="0.74"/>
<stop offset="0.435" stop-color="#DB293D" stop-opacity="0.343"/>
<stop offset="0.497" stop-color="#F5334B" stop-opacity="0.094"/>
<stop offset="0.53" stop-color="#FF3750" stop-opacity="0"/>
</radialGradient>
<radialGradient id="paint3_radial_436_3954" cx="0" cy="0" r="1" gradientUnits="userSpaceOnUse" gradientTransform="translate(22.9368 -3.63387) scale(28.7307 28.1102)">
<stop offset="0.132" stop-color="#FFF44F"/>
<stop offset="0.252" stop-color="#FFDC3E"/>
<stop offset="0.506" stop-color="#FF9D12"/>
<stop offset="0.526" stop-color="#FF980E"/>
</radialGradient>
<radialGradient id="paint4_radial_436_3954" cx="0" cy="0" r="1" gradientUnits="userSpaceOnUse" gradientTransform="translate(13.7692 31.17) scale(18.883 18.4752)">
<stop offset="0.353" stop-color="#3A8EE6"/>
<stop offset="0.472" stop-color="#5C79F0"/>
<stop offset="0.669" stop-color="#9059FF"/>
<stop offset="1" stop-color="#C139E6"/>
</radialGradient>
<radialGradient id="paint5_radial_436_3954" cx="0" cy="0" r="1" gradientUnits="userSpaceOnUse" gradientTransform="translate(20.3229 17.8549) rotate(-13.3086) scale(9.99986 11.4816)">
<stop offset="0.206" stop-color="#9059FF" stop-opacity="0"/>
<stop offset="0.278" stop-color="#8C4FF3" stop-opacity="0.064"/>
<stop offset="0.747" stop-color="#7716A8" stop-opacity="0.45"/>
<stop offset="0.975" stop-color="#6E008B" stop-opacity="0.6"/>
</radialGradient>
<radialGradient id="paint6_radial_436_3954" cx="0" cy="0" r="1" gradientUnits="userSpaceOnUse" gradientTransform="translate(17.655 3.58413) scale(13.5844 13.2911)">
<stop stop-color="#FFE226"/>
<stop offset="0.121" stop-color="#FFDB27"/>
<stop offset="0.295" stop-color="#FFC82A"/>
<stop offset="0.502" stop-color="#FFA930"/>
<stop offset="0.732" stop-color="#FF7E37"/>
<stop offset="0.792" stop-color="#FF7139"/>
</radialGradient>
<radialGradient id="paint7_radial_436_3954" cx="0" cy="0" r="1" gradientUnits="userSpaceOnUse" gradientTransform="translate(28.3326 -4.84624) scale(57.9587 56.7069)">
<stop offset="0.113" stop-color="#FFF44F"/>
<stop offset="0.456" stop-color="#FF980E"/>
<stop offset="0.622" stop-color="#FF5634"/>
<stop offset="0.716" stop-color="#FF3647"/>
<stop offset="0.904" stop-color="#E31587"/>
</radialGradient>
<radialGradient id="paint8_radial_436_3954" cx="0" cy="0" r="1" gradientUnits="userSpaceOnUse" gradientTransform="translate(23.4478 -1.69305) rotate(83.844) scale(41.5721 27.8719)">
<stop stop-color="#FFF44F"/>
<stop offset="0.06" stop-color="#FFE847"/>
<stop offset="0.168" stop-color="#FFC830"/>
<stop offset="0.304" stop-color="#FF980E"/>
<stop offset="0.356" stop-color="#FF8B16"/>
<stop offset="0.455" stop-color="#FF672A"/>
<stop offset="0.57" stop-color="#FF3647"/>
<stop offset="0.737" stop-color="#E31587"/>
</radialGradient>
<radialGradient id="paint9_radial_436_3954" cx="0" cy="0" r="1" gradientUnits="userSpaceOnUse" gradientTransform="translate(17.335 8.50739) scale(36.1846 35.4031)">
<stop offset="0.137" stop-color="#FFF44F"/>
<stop offset="0.48" stop-color="#FF980E"/>
<stop offset="0.592" stop-color="#FF5634"/>
<stop offset="0.655" stop-color="#FF3647"/>
<stop offset="0.904" stop-color="#E31587"/>
</radialGradient>
<radialGradient id="paint10_radial_436_3954" cx="0" cy="0" r="1" gradientUnits="userSpaceOnUse" gradientTransform="translate(26.8867 10.5792) scale(39.6038 38.7484)">
<stop offset="0.094" stop-color="#FFF44F"/>
<stop offset="0.231" stop-color="#FFE141"/>
<stop offset="0.509" stop-color="#FFAF1E"/>
<stop offset="0.626" stop-color="#FF980E"/>
</radialGradient>
<linearGradient id="paint11_linear_436_3954" x1="33.727" y1="6.69985" x2="7.44214" y2="33.5644" gradientUnits="userSpaceOnUse">
<stop offset="0.167" stop-color="#FFF44F" stop-opacity="0.8"/>
<stop offset="0.266" stop-color="#FFF44F" stop-opacity="0.634"/>
<stop offset="0.489" stop-color="#FFF44F" stop-opacity="0.217"/>
<stop offset="0.6" stop-color="#FFF44F" stop-opacity="0"/>
</linearGradient>
</defs>
</svg>
